<?xml version="1.0" encoding="utf-8"?>
<!-- Generator: Adobe Illustrator 25.4.1, SVG Export Plug-In . SVG Version: 6.00 Build 0)  -->
<svg version="1.1" id="Layer_1" xmlns="http://www.w3.org/2000/svg" xmlns:xlink="http://www.w3.org/1999/xlink" x="0px" y="0px"
	 viewBox="0 0 255.1 141.7" style="enable-background:new 0 0 255.1 141.7;" xml:space="preserve">
<style type="text/css">
	.st0{fill:#48B7B1;}
	.st1{font-family:'SDGothicNeoa-fSm-KSCpc-EUC-H';}
	.st2{font-size:13.0561px;}
	.st3{font-family:'SDGothicNeoa-eMd-KSCpc-EUC-H';}
	.st4{font-size:7.5px;}
	.st5{font-family:'SDGothicNeoa-dRg-KSCpc-EUC-H';}
	.st6{font-size:6px;}
	.st7{font-family:'SDGothicNeoa-cLt-KSCpc-EUC-H';}
	.st8{font-size:6.2969px;}
	.st9{enable-background:new    ;}
	.st10{font-size:6.0195px;}
	.st11{font-size:6.79px;}
	.st12{font-size:6.5px;}
	.st13{fill:none;stroke:#000000;stroke-width:0.25;stroke-miterlimit:10;}
</style>
<g>
	<path class="st0" d="M27,117.3c0-1-0.5-1.6-1.4-1.6c-0.6,0-1,0.3-1.3,0.5c-0.2,0.2-0.2,0.4-0.2,0.9v2.3c0,1.1,0,1.2,0.6,1.3l0.3,0
		c0.1,0.1,0.1,0.3,0,0.4c-0.5,0-0.9,0-1.4,0c-0.5,0-1,0-1.4,0c-0.1,0-0.1-0.3,0-0.4l0.3,0c0.6-0.1,0.6-0.2,0.6-1.3v-2.2
		c0-1-0.5-1.6-1.4-1.6c-0.6,0-1,0.3-1.3,0.5c-0.2,0.2-0.2,0.4-0.2,0.9v2.4c0,1.1,0,1.2,0.6,1.3l0.3,0c0.1,0.1,0.1,0.3,0,0.4
		c-0.4,0-0.9,0-1.4,0c-0.5,0-1,0-1.5,0c-0.1,0-0.1-0.3,0-0.4l0.4,0c0.6-0.1,0.6-0.2,0.6-1.3v-2.7c0-0.6,0-0.7-0.4-0.9l-0.1-0.1
		c-0.1-0.1-0.1-0.2,0-0.3c0.4-0.1,1.2-0.5,1.5-0.7c0.1,0,0.1,0,0.2,0.1c0,0.3,0,0.6,0,0.7c0,0.1,0.1,0.2,0.2,0.2
		c0.6-0.4,1.3-0.8,2-0.8c0.8,0,1.2,0.3,1.6,0.9c0.1,0,0.2,0,0.4-0.1c0.6-0.4,1.4-0.8,2.1-0.8c1.2,0,1.8,0.8,1.8,1.9v2.6
		c0,1.1,0,1.2,0.6,1.3l0.4,0c0.1,0.1,0.1,0.3,0,0.4c-0.5,0-0.9,0-1.5,0c-0.5,0-1,0-1.4,0c-0.1,0-0.1-0.3,0-0.4l0.3,0
		c0.6-0.1,0.6-0.2,0.6-1.3V117.3z"/>
	<path class="st0" d="M29,124.4c0-0.4,0.3-0.6,0.6-0.6h0.3c0.2,0,0.4-0.1,0.5-0.3c0.4-0.7,0.7-1.3,0.9-1.7c0-0.1,0.2-0.4,0.2-0.7
		c0-0.3-0.1-0.5-0.3-1l-1.2-3.3c-0.3-0.7-0.4-1.1-0.9-1.2l-0.4-0.1c-0.1-0.1-0.1-0.3,0-0.4c0.5,0,0.9,0,1.4,0c0.4,0,0.8,0,1.3,0
		c0.1,0,0.1,0.3,0,0.4l-0.4,0.1c-0.2,0-0.3,0.1-0.3,0.2c0,0.2,0.3,1.2,0.4,1.4l0.5,1.4c0.1,0.2,0.4,1,0.4,1.1c0,0,0.3-0.5,0.6-1.1
		l0.5-1.2c0.3-0.8,0.5-1.4,0.5-1.5c0-0.1-0.1-0.2-0.4-0.3l-0.5-0.1c-0.1-0.1-0.1-0.3,0-0.4c0.5,0,0.9,0,1.3,0c0.4,0,0.7,0,1.2,0
		c0.1,0.1,0.1,0.3,0,0.4l-0.3,0c-0.5,0.1-0.8,0.5-1.3,1.6l-0.9,1.7c-0.5,1-1.7,3.7-2.5,5.3c-0.3,0.6-0.6,0.7-1,0.7
		C29.2,125,29,124.7,29,124.4"/>
	<path class="st0" d="M39.5,115.3c0.1,0.3,0.2,0.8,0.2,1.2c-0.1,0.1-0.3,0.1-0.4,0c-0.3-0.7-0.7-1.1-1.3-1.1c-0.6,0-1,0.4-1,0.9
		c0,0.6,0.6,1,1.2,1.3c0.8,0.5,1.6,1,1.6,2.1c0,1.2-1.1,1.7-2.2,1.7c-0.7,0-1.2-0.2-1.6-0.5c-0.1-0.3-0.2-1-0.2-1.5
		c0.1-0.1,0.3-0.1,0.4,0c0.3,0.8,0.7,1.6,1.6,1.6c0.5,0,1-0.3,1-1c0-0.7-0.6-1.1-1.2-1.4c-0.9-0.5-1.5-1-1.5-1.9
		c0-1.1,0.9-1.7,2.1-1.7C38.8,115,39.4,115.2,39.5,115.3"/>
	<path class="st0" d="M45.9,115.3c0.1,0.1,0.2,0.4,0.2,0.6c0,0.3-0.2,0.6-0.3,0.6c-0.1,0-0.2,0-0.2-0.1c-0.3-0.4-0.9-0.8-1.5-0.8
		c-1.1,0-2.1,0.8-2.1,2.4c0,1.2,0.8,2.6,2.4,2.6c0.9,0,1.3-0.4,1.7-0.9c0.1,0,0.3,0.1,0.3,0.2c-0.5,1.1-1.7,1.6-2.5,1.6
		c-0.8,0-1.6-0.3-2.1-0.8c-0.5-0.5-0.9-1.3-0.9-2.3c0-1.6,1.2-3.4,3.7-3.4C44.9,115,45.5,115.1,45.9,115.3"/>
</g>
<g>
	<g>
		<path d="M19,25.2l3,0.9v0.4l-3.5-1.1v-0.4l3.1-0.9l-3.1-0.9v-0.4l3.5-1.1v0.4l-3,0.9l3,0.9v0.4L19,25.2z"/>
		<path d="M19,30.2l3,0.9v0.4l-3.5-1.1V30l3.1-0.9l-3.1-0.9v-0.4l3.5-1.1v0.4L19,28l3,0.9v0.4L19,30.2z"/>
		<path d="M19,35.1l3,0.9v0.4l-3.5-1.1v-0.4l3.1-0.9l-3.1-0.9v-0.4l3.5-1.1v0.4l-3,0.9l3,0.9v0.4L19,35.1z"/>
		<path d="M18.7,37v0.6h-0.6V37H18.7z"/>
		<path d="M21.4,39.1c0.5,0.3,0.6,0.7,0.6,1c0,0.5-0.3,0.9-0.8,1.1c0.5,0.3,0.8,0.7,0.8,1.1c0,0.7-0.4,1.2-1.2,1.2h-2.4v-0.4h2.4
			c0.6,0,0.9-0.4,0.9-0.9c0-0.5-0.4-1-1.1-1h-2.2V41h2.4c0.6,0,0.9-0.4,0.9-0.9c0-0.5-0.4-1-1.1-1h-2.2v-0.4h3.5v0.4H21.4z"/>
		<path d="M17.2,44.3c0.2,0.7,0.5,1,1.1,1.2l3.5-1.4v0.4l-3.1,1.1l3.1,1.1v0.4l-3.2-1.2c-1-0.4-1.6-0.7-1.8-1.7L17.2,44.3z"/>
		<path d="M21.5,49.6c0.1-0.2,0.2-0.5,0.2-0.8c0-0.5-0.2-0.7-0.5-0.7c-0.4,0-0.5,0.3-0.8,0.9c-0.3,0.5-0.5,1-1,1c-0.7,0-1-0.6-1-1.2
			c0-0.4,0.1-0.9,0.5-1.2l0.3,0.2c-0.2,0.2-0.4,0.6-0.4,1c0,0.4,0.2,0.8,0.6,0.8c0.3,0,0.5-0.4,0.7-0.8c0.2-0.5,0.5-1.1,1.1-1.1
			c0.7,0,0.9,0.6,0.9,1.1c0,0.4-0.1,0.7-0.3,1L21.5,49.6z"/>
		<path d="M18.7,53.5c-0.3-0.3-0.4-0.7-0.4-1.2c0-1.1,0.8-1.8,1.8-1.8c1.1,0,1.9,0.7,1.9,1.8c0,0.4-0.1,0.8-0.3,1.1l-0.3-0.2
			c0.1-0.2,0.2-0.6,0.2-0.9c0-0.8-0.6-1.4-1.5-1.4c-1,0-1.5,0.8-1.5,1.4c0,0.4,0.1,0.7,0.3,1L18.7,53.5z"/>
		<path d="M18.7,54.3v0.6h-0.6v-0.6H18.7z"/>
		<path d="M18.7,58.7c-0.3-0.3-0.4-0.7-0.4-1.2c0-1.1,0.8-1.8,1.8-1.8c1.1,0,1.9,0.7,1.9,1.8c0,0.4-0.1,0.8-0.3,1.1l-0.3-0.2
			c0.1-0.2,0.2-0.6,0.2-0.9c0-0.8-0.6-1.4-1.5-1.4c-1,0-1.5,0.8-1.5,1.4c0,0.4,0.1,0.7,0.3,1L18.7,58.7z"/>
		<path d="M20.2,59.2c1.1,0,1.8,0.7,1.8,1.7c0,1-0.7,1.7-1.8,1.7s-1.9-0.8-1.9-1.7C18.3,59.9,19.1,59.2,20.2,59.2z M20.2,59.6
			c-1,0-1.5,0.6-1.5,1.3c0,0.7,0.6,1.3,1.5,1.3c1,0,1.5-0.6,1.5-1.3C21.7,60.2,21.2,59.6,20.2,59.6z"/>
		<path d="M18.7,63.4V64h-0.6v-0.6H18.7z"/>
		<path d="M21.9,67.6l-1.6-1.7L18.4,68v-0.5l1.9-2h-1.9V65h5v0.4h-3l1.5,1.6V67.6z"/>
		<path d="M21.2,68.9c0.6,0.3,0.8,0.8,0.8,1.3h-0.4c0,0,0-0.1,0-0.1c0-0.7-0.6-1.2-1.2-1.2h-2.1v-0.4h3.5v0.4H21.2z"/>
	</g>
</g>
<text id="korName" transform="matrix(1 0 0 1 104.1782 32.5193)" class="st1 st2">홍길동</text>
<text id="korNickName" transform="matrix(1 0 0 1 152.0975 32.0682)" class="st3 st4">의적</text>
<text id="jobTitle" transform="matrix(1 0 0 1 104.7452 62.8484)" class="st5 st6">CEO</text>
<text id="korAddress" transform="matrix(1 0 0 1 104.7456 103.0804)" class="st7 st8" >서울시 성동구 뚝섬로1나길 5, 헤이그라운드 G402</text>
<text transform="matrix(1 0 0 1 104.7461 113.1332)" class="st9"><tspan x="0" y="-1.2" class="st7 st10" id="engAddress01">Heyground G402, 5, Ttukseom-ro 1na-gil,</tspan><tspan x="0" y="7.2" class="st7 st10" id="engAddress02">Seongdong-gu, Seoul, Korea</tspan></text>
<path d="M105.3,74.9h3.2v0.6H106v1.2h2v0.6h-2v1.3h2.4v0.6h-3.2L105.3,74.9L105.3,74.9z"/>
<path d="M105.3,86.5h1.1l1.1,3.2l0,0l1.1-3.2h1.1v4.2h-0.8v-3.3l0,0l-1.1,3.3h-0.6l-1-3.3l0,0v3.3h-0.8L105.3,86.5L105.3,86.5z"/>
<text id="email" transform="matrix(1.0309 0 0 1 113.0854 78.7972)" class="st5 st11">mysc@mysc.co.kr</text>
<text id="cellPhoneNum" transform="matrix(1.0309 0 0 1 113.0854 90.8251)" class="st5 st11">82 10 1234 5678</text>
<path d="M182.5,75.2h-1.3v-0.6h3.3v0.6h-1.2v3.6h-0.8V75.2z"/>
<path id="faxIcon" d="M181.6,86.5h2.7v0.6h-1.9v1.3h1.5V89h-1.5v1.8h-0.8V86.5z"/>
<g>
	<text id="officePhoneNum" transform="matrix(1.0309 0 0 1 187.5918 78.7972)" class="st5 st11">82 2 532 1237</text>
	<text id="faxNum" transform="matrix(1.0309 0 0 1 187.5918 90.8251)" class="st5 st11">82 2 6008 1126</text>
</g>
<text id="engName" transform="matrix(1 0 0 1 105.3689 45.5857)" class="st5 st12">Gildong Hong  |  Robin Hood</text>
<path d="M146.4,33.3h-0.5v-6.8h0.5V33.3z"/>
<rect y="0" class="st13" width="255.1" height="141.7"/>
</svg>
