<?xml version="1.0" encoding="utf-8"?>
<!-- Generator: Adobe Illustrator 25.4.1, SVG Export Plug-In . SVG Version: 6.00 Build 0)  -->
<svg version="1.1" id="Layer_1" xmlns="http://www.w3.org/2000/svg" xmlns:xlink="http://www.w3.org/1999/xlink" x="0px" y="0px"
	 viewBox="0 0 255.1 141.7" style="enable-background:new 0 0 255.1 141.7;" xml:space="preserve" alt="">
<style type="text/css">
	.st0{fill:#48B7B1;}
	.st1{font-family:'SDGothicNeoa-fSm-KSCpc-EUC-H';}
	.st2{font-size:13.0561px;}
	.st3{font-family:'SDGothicNeoa-eMd-KSCpc-EUC-H';}
	.st4{font-size:7.5px;}
	.st5{font-family:'SDGothicNeoa-dRg-KSCpc-EUC-H';}
	.st6{font-size:6px;}
	.st7{font-size:6.79px;}
	.st8{font-size:6.5px;}
	.st9{fill:none;stroke:#000000;stroke-width:0.25;stroke-miterlimit:10;}
</style>
<g>
	<path class="st0" d="M27.1,117.3c0-1-0.5-1.6-1.4-1.6c-0.6,0-1,0.3-1.3,0.5c-0.2,0.2-0.2,0.4-0.2,0.9v2.3c0,1.1,0,1.2,0.6,1.3h0.3
		c0.1,0.1,0.1,0.3,0,0.4c-0.5,0-0.9,0-1.4,0s-1,0-1.4,0c-0.1,0-0.1-0.3,0-0.4h0.3c0.6-0.1,0.6-0.2,0.6-1.3v-2.2c0-1-0.5-1.6-1.4-1.6
		c-0.6,0-1,0.3-1.3,0.5c-0.2,0.2-0.2,0.4-0.2,0.9v2.4c0,1.1,0,1.2,0.6,1.3h0.3c0.1,0.1,0.1,0.3,0,0.4c-0.4,0-0.9,0-1.4,0s-1,0-1.5,0
		c-0.1,0-0.1-0.3,0-0.4h0.4c0.6-0.1,0.6-0.2,0.6-1.3v-2.7c0-0.6,0-0.7-0.4-0.9l-0.1-0.1c-0.1-0.1-0.1-0.2,0-0.3
		c0.4-0.1,1.2-0.5,1.5-0.7c0.1,0,0.1,0,0.2,0.1c0,0.3,0,0.6,0,0.7s0.1,0.2,0.2,0.2c0.6-0.4,1.3-0.8,2-0.8c0.8,0,1.2,0.3,1.6,0.9
		c0.1,0,0.2,0,0.4-0.1c0.6-0.4,1.4-0.8,2.1-0.8c1.2,0,1.8,0.8,1.8,1.9v2.6c0,1.1,0,1.2,0.6,1.3h0.4c0.1,0.1,0.1,0.3,0,0.4
		c-0.5,0-0.9,0-1.5,0c-0.5,0-1,0-1.4,0c-0.1,0-0.1-0.3,0-0.4H27c0.6-0.1,0.6-0.2,0.6-1.3v-2.1H27.1z"/>
	<path class="st0" d="M29.1,124.4c0-0.4,0.3-0.6,0.6-0.6H30c0.2,0,0.4-0.1,0.5-0.3c0.4-0.7,0.7-1.3,0.9-1.7c0-0.1,0.2-0.4,0.2-0.7
		c0-0.3-0.1-0.5-0.3-1l-1.2-3.3c-0.3-0.7-0.4-1.1-0.9-1.2l-0.4-0.1c-0.1-0.1-0.1-0.3,0-0.4c0.5,0,0.9,0,1.4,0c0.4,0,0.8,0,1.3,0
		c0.1,0,0.1,0.3,0,0.4l-0.4,0.1c-0.2,0-0.3,0.1-0.3,0.2c0,0.2,0.3,1.2,0.4,1.4l0.5,1.4c0.1,0.2,0.4,1,0.4,1.1c0,0,0.3-0.5,0.6-1.1
		l0.5-1.2c0.3-0.8,0.5-1.4,0.5-1.5s-0.1-0.2-0.4-0.3l-0.5-0.1c-0.1-0.1-0.1-0.3,0-0.4c0.5,0,0.9,0,1.3,0c0.4,0,0.7,0,1.2,0
		c0.1,0.1,0.1,0.3,0,0.4H35c-0.5,0.1-0.8,0.5-1.3,1.6l-0.9,1.7c-0.5,1-1.7,3.7-2.5,5.3c-0.3,0.6-0.6,0.7-1,0.7
		C29.3,125,29.1,124.8,29.1,124.4"/>
	<path class="st0" d="M39.6,115.3c0.1,0.3,0.2,0.8,0.2,1.2c-0.1,0.1-0.3,0.1-0.4,0c-0.3-0.7-0.7-1.1-1.3-1.1s-1,0.4-1,0.9
		c0,0.6,0.6,1,1.2,1.3c0.8,0.5,1.6,1,1.6,2.1c0,1.2-1.1,1.7-2.2,1.7c-0.7,0-1.2-0.2-1.6-0.5c-0.1-0.3-0.2-1-0.2-1.5
		c0.1-0.1,0.3-0.1,0.4,0c0.3,0.8,0.7,1.6,1.6,1.6c0.5,0,1-0.3,1-1s-0.6-1.1-1.2-1.4c-0.9-0.5-1.5-1-1.5-1.9c0-1.1,0.9-1.7,2.1-1.7
		C38.9,115.1,39.5,115.2,39.6,115.3"/>
	<path class="st0" d="M46,115.3c0.1,0.1,0.2,0.4,0.2,0.6c0,0.3-0.2,0.6-0.3,0.6s-0.2,0-0.2-0.1c-0.3-0.4-0.9-0.8-1.5-0.8
		c-1.1,0-2.1,0.8-2.1,2.4c0,1.2,0.8,2.6,2.4,2.6c0.9,0,1.3-0.4,1.7-0.9c0.1,0,0.3,0.1,0.3,0.2c-0.5,1.1-1.7,1.6-2.5,1.6
		s-1.6-0.3-2.1-0.8s-0.9-1.3-0.9-2.3c0-1.6,1.2-3.4,3.7-3.4C45,115.1,45.6,115.1,46,115.3"/>
</g>
<text id="korName" transform="matrix(1 0 0 1 104.1782 32.5193)" class="st1 st2">홍길동</text>
<text id="korNickName" transform="matrix(1 0 0 1 152.0975 32.0682)" class="st3 st4">의적</text>
<text id="jobTitle" transform="matrix(1 0 0 1 104.7452 62.8484)" class="st5 st6">CEO</text>
<g>
	<path d="M107,98.7v1.6c0,1,0.8,1.8,1.7,2.2l-0.2,0.3c-0.5-0.3-1.3-0.8-1.6-1.6c-0.3,0.8-1,1.3-1.7,1.8l-0.3-0.3
		c0.9-0.5,1.7-1.3,1.7-2.4v-1.5L107,98.7L107,98.7z M109.9,104.2h-0.4v-3.7h-1.4v-0.3h1.4v-1.7h0.4V104.2z"/>
	<path d="M116.3,101.1h-2.6v0.7h1.8v1.3H112v0.7h3.7v0.3h-4.2v-1.4h3.6V102h-3.6v-0.3h1.8V101h-2.6v-0.3h5.6V101.1z M111.5,99.3
		c0-0.5,0.7-0.9,2-0.9c1.2,0,2,0.4,2,0.9c0,0.6-0.8,1-2,1S111.5,99.9,111.5,99.3z M112,99.3c0,0.4,0.7,0.6,1.6,0.6s1.6-0.2,1.6-0.6
		s-0.7-0.6-1.6-0.6C112.7,98.7,112,98.9,112,99.3z"/>
	<path d="M118.6,98.7v1.6c0,1,0.8,1.8,1.7,2.2l-0.2,0.3c-0.5-0.3-1.3-0.8-1.6-1.6c-0.3,0.8-1,1.3-1.7,1.8l-0.3-0.3
		c0.9-0.5,1.7-1.3,1.7-2.4v-1.5L118.6,98.7L118.6,98.7z M121.5,104.2h-0.4v-5.8h0.4V104.2z"/>
	<path d="M127.5,101.5c-0.5-0.2-1.3-0.6-1.6-1.3c-0.3,0.7-0.9,1.1-1.6,1.4l-0.2-0.3c0.8-0.4,1.6-0.9,1.6-1.8v-0.9h0.4v0.9
		c0,0.9,0.8,1.4,1.6,1.7L127.5,101.5z M125.3,103.1c0-0.9,1-1.2,2-1.2c0.9,0,2,0.3,2,1.2c0,0.9-1,1.2-2,1.2
		C126.3,104.3,125.3,104,125.3,103.1z M125.7,103.1c0,0.6,0.8,0.9,1.5,0.9s1.5-0.2,1.5-0.9c0-0.6-0.8-0.9-1.5-0.9
		S125.7,102.5,125.7,103.1z M129.1,101.7h-0.4v-1.8h-1.3v-0.3h1.3v-1.1h0.4V101.7z"/>
	<path d="M135.5,101.5h-5.6v-0.3h2.6v-0.7h-1.8v-1.9h4v0.3h-3.6v1.2h3.6v0.3h-1.9v0.7h2.6L135.5,101.5L135.5,101.5z M134.8,103.2
		c0,0.6-0.7,1.1-2.1,1.1c-1.3,0-2.1-0.5-2.1-1.1s0.7-1.1,2.1-1.1S134.8,102.6,134.8,103.2z M132.7,102.4c-1,0-1.6,0.3-1.6,0.8
		s0.6,0.8,1.6,0.8s1.6-0.3,1.6-0.8C134.4,102.7,133.8,102.4,132.7,102.4z"/>
	<path d="M141.3,101.6v0.3h-2.6v2.2h-0.4v-2.2h-2.6v-0.3H141.3z M139.9,101c0.1-0.6,0.2-1.5,0.2-2h-3.6v-0.3h4
		c0,0.9-0.1,1.7-0.2,2.4L139.9,101L139.9,101z"/>
	<path d="M148.9,101.5h-2.6v0.9h1.8v1.9h-0.4v-1.6H144v-0.3h1.9v-0.9h-2.6v-0.3h5.6V101.5z M145.9,100.4c-0.5,0-1.2,0.1-1.9,0.1
		v-1.9h1.8v0.3h-1.4v1.2c0.5,0,1.1,0,1.5,0L145.9,100.4L145.9,100.4z M146.2,100.4v-1.9h2v0.3h-1.6v1.2h1.7v0.3L146.2,100.4
		L146.2,100.4z"/>
	<path d="M152.5,101.4c-0.5-0.2-1.3-0.6-1.6-1.3c-0.3,0.7-0.9,1.1-1.6,1.4l-0.2-0.3c0.8-0.4,1.6-0.9,1.6-1.9v-0.8h0.4v0.8
		c0,0.9,0.8,1.4,1.6,1.7L152.5,101.4z M154,104.1h-3.8V102h3.8V104.1z M153.6,103.8v-1.5h-3v1.5H153.6z M154,101.7h-0.4v-1.8h-1.3
		v-0.3h1.3v-1.1h0.4V101.7z"/>
	<path d="M157.9,102.1v1h2.6v0.3h-5.6v-0.3h2.5v-1H157.9z M155.7,101.8v-1.7h3.5v-1h-3.5v-0.3h4v1.7h-3.5v1h3.7v0.3H155.7z"/>
	<path d="M161.8,103.5v-4L161,100l-0.2-0.2l1-0.8h0.3v4.5H161.8z"/>
	<path d="M166.6,102.4c-1,0.1-2.4,0.1-3.4,0.1v-3.8h0.4v3.5c1.1,0,2.1,0,3-0.1V102.4z M168.6,100.7h-1.1v3.5h-0.4v-5.8h0.4v2h1.1
		V100.7z"/>
	<path d="M171.7,98.6c-0.1,1.6-1.4,2.4-2.6,2.8l-0.2-0.3c1.2-0.4,2.2-1,2.4-2.1h-2.1v-0.3L171.7,98.6L171.7,98.6z M173.7,104.2h-4
		v-1.4h3.4V102h-3.4v-0.3h3.8v1.4h-3.4v0.8h3.6L173.7,104.2L173.7,104.2z M173.6,101.3h-0.4v-2.9h0.4V101.3z"/>
	<path d="M178.5,100.9c0.6,0.2,0.9,0.7,0.9,1.2c0,0.7-0.6,1.4-1.5,1.4c-0.5,0-1-0.2-1.4-0.5l0.2-0.3c0.4,0.3,0.8,0.4,1.1,0.4
		c0.7,0,1.2-0.5,1.2-1.1s-0.5-1.1-1.4-1.1c-0.2,0-0.5,0-0.7,0.1l0.1-2.1h2.2v0.3h-1.9v1.5c0.1,0,0.3,0,0.4,0
		C177.9,100.7,178.2,100.8,178.5,100.9z"/>
	<path d="M180.2,103.2h0.6v0.5c0,0.1,0,0.2,0,0.3c-0.1,0.3-0.3,0.5-0.5,0.7l-0.1-0.1c0.2-0.2,0.4-0.4,0.4-0.8h-0.3L180.2,103.2
		L180.2,103.2z"/>
	<path d="M186.2,99.7h-3.1v-0.3h1.3v-0.9h0.4v0.9h1.3v0.3H186.2z M186,101.5c0,0.9-0.5,1.4-1.3,1.4s-1.4-0.5-1.4-1.4
		c0-0.8,0.5-1.3,1.4-1.3C185.5,100.2,186,100.7,186,101.5z M185.6,101.5c0-0.6-0.3-1-1-1c-0.6,0-1,0.4-1,1s0.3,1.1,1,1.1
		S185.6,102.2,185.6,101.5z M187.2,104h-0.4v-2.9h-0.7v-0.4h0.7v-2.3h0.4V104z M188.3,104.2h-0.4v-5.8h0.4V104.2z"/>
	<path d="M192.3,100.7c0,1.3-0.6,2-1.5,2s-1.5-0.7-1.5-2c0-1.4,0.6-2,1.5-2S192.3,99.4,192.3,100.7z M191.9,100.7
		c0-1-0.4-1.7-1.1-1.7s-1.1,0.6-1.1,1.7c0,1,0.4,1.7,1.1,1.7C191.5,102.4,191.9,101.7,191.9,100.7z M193.9,104.2h-0.4v-5.8h0.4
		V104.2z"/>
	<path d="M200.3,102.8v0.3h-5.6v-0.3H200.3z M198.8,102.2c0.2-0.8,0.3-2,0.3-3h-3.6v-0.3h4c0,1.2-0.1,2.4-0.3,3.3H198.8z"/>
	<path d="M204.3,102.6c-1.1,0.1-2.4,0.1-3.5,0.1v-2.2h2.2v-1.4h-2.2v-0.3h2.6v2.1h-2.2v1.5c1.2,0,2,0,3.1-0.1L204.3,102.6
		L204.3,102.6z M205.2,98.4v2.2h1.1v0.4h-1.1v3.3h-0.4v-5.8L205.2,98.4L205.2,98.4z"/>
	<path d="M211.9,101.7h-2.5v1.2H209v-1.2h-2.7v-0.3h5.6L211.9,101.7L211.9,101.7z M207.1,99.6c0-0.6,0.7-1.1,2-1.1s2,0.5,2,1.1
		s-0.7,1.1-2,1.1S207.1,100.2,207.1,99.6z M211.3,104.1h-4.2v-1.7h0.4v1.4h3.8V104.1z M207.5,99.6c0,0.4,0.6,0.8,1.6,0.8
		c0.9,0,1.6-0.3,1.6-0.8s-0.6-0.8-1.6-0.8C208.1,98.8,207.5,99.1,207.5,99.6z"/>
	<path d="M217.7,103.3h-5.6V103h5.6V103.3z M212.9,101.5v-2.7h4v0.3h-3.6v2h3.6v0.3L212.9,101.5L212.9,101.5z"/>
	<path d="M223.3,101.5H222v-0.3h1.6v2c-0.6,0.3-1,0.4-1.5,0.4c-1.3,0-2.2-1-2.2-2.3c0-1.4,0.9-2.3,2.2-2.3c0.6,0,1,0.1,1.4,0.3
		l-0.2,0.3c-0.3-0.2-0.8-0.3-1.2-0.3c-1.2,0-1.8,0.9-1.8,2s0.7,2,1.8,2c0.4,0,0.8-0.1,1.1-0.2L223.3,101.5L223.3,101.5z"/>
	<path d="M227.5,102.3h-0.7v1.2h-0.4v-1.2h-2.2V102l2.2-2.9h0.4v3h0.7V102.3z M226.4,102v-2.4l-1.8,2.4H226.4z"/>
	<path d="M228,101.2c0-0.9,0.3-2.3,1.5-2.3s1.5,1.3,1.5,2.3s-0.3,2.3-1.5,2.3C228.2,103.5,228,102.1,228,101.2z M228.3,101.2
		c0,0.8,0.2,2,1.1,2c1,0,1.2-1.3,1.2-2s-0.2-2-1.1-2C228.5,99.2,228.3,100.5,228.3,101.2z"/>
	<path d="M234.4,103.2v0.3h-2.7v-0.4l1-1.1c1-1,1.2-1.5,1.2-1.9c0-0.5-0.3-0.9-1-0.9c-0.4,0-0.8,0.2-1.1,0.5l-0.2-0.2
		c0.4-0.3,0.9-0.5,1.3-0.5c0.8,0,1.3,0.5,1.3,1.2c0,0.6-0.5,1.2-1.4,2.1l-0.9,0.9H234.4z"/>
	<path d="M108.5,113.5h-0.3v-2h-2.3v2h-0.3v-4.1h0.3v1.8h2.3v-1.8h0.3V113.5z"/>
	<path d="M111.7,113.2c-0.3,0.2-0.6,0.3-1,0.3c-0.9,0-1.5-0.6-1.5-1.5s0.5-1.6,1.4-1.6s1.3,0.7,1.3,1.4c0,0.1,0,0.1,0,0.2h-2.4
		c0,0.9,0.7,1.3,1.2,1.3c0.3,0,0.6-0.1,0.8-0.2L111.7,113.2z M111.6,111.7c0-0.5-0.4-1.1-1-1.1s-1,0.6-1,1.1H111.6z"/>
	<path d="M112.3,114.5c0.6-0.1,0.8-0.4,1.1-1l-1.2-3h0.4l1,2.6l1-2.6h0.4l-1,2.8c-0.3,0.9-0.6,1.3-1.4,1.5L112.3,114.5z"/>
	<path d="M117.7,111v-0.5h0.3v2.8c0,1.1-0.7,1.5-1.4,1.5c-0.4,0-0.7-0.1-1.1-0.3l0.1-0.3c0.3,0.1,0.6,0.2,0.9,0.2
		c0.6,0,1.1-0.4,1.1-1.2v-0.4c-0.2,0.4-0.6,0.6-1.1,0.6c-0.8,0-1.4-0.6-1.4-1.5c0-1,0.5-1.6,1.4-1.6
		C116.9,110.4,117.4,110.5,117.7,111z M115.6,111.9c0,0.6,0.3,1.2,1,1.2s1-0.6,1-1.2c0-0.8-0.4-1.3-1-1.3
		C115.9,110.6,115.6,111.3,115.6,111.9z"/>
	<path d="M119.3,111.1c0.3-0.5,0.7-0.7,1.1-0.7v0.3h-0.1c-0.6,0-1,0.5-1,1v1.8H119v-3h0.3V111.1z"/>
	<path d="M120.5,111.9c0-1,0.6-1.6,1.5-1.6s1.4,0.6,1.4,1.6s-0.6,1.6-1.5,1.6C121.2,113.5,120.5,112.9,120.5,111.9z M120.9,111.9
		c0,0.8,0.5,1.3,1.1,1.3s1.1-0.5,1.1-1.3s-0.5-1.3-1.1-1.3S120.9,111.1,120.9,111.9z"/>
	<path d="M126.3,112.9c-0.2,0.4-0.6,0.7-1.1,0.7c-0.6,0-1.2-0.4-1.2-1.1v-1.9h0.3v1.9c0,0.6,0.4,0.9,0.8,0.9c0.6,0,1-0.5,1-1.1v-1.7
		h0.3v3h-0.3v-0.7H126.3z"/>
	<path d="M127.9,111c0.2-0.4,0.6-0.7,1.1-0.7c0.6,0,1.2,0.4,1.2,1.1v2h-0.3v-2c0-0.6-0.4-0.9-0.9-0.9c-0.6,0-1,0.6-1,1.1v1.7h-0.3
		v-3h0.3L127.9,111L127.9,111z"/>
	<path d="M133.3,111v-1.8h0.3v4.3h-0.3v-0.6c-0.2,0.4-0.6,0.6-1.1,0.6c-0.8,0-1.4-0.6-1.4-1.6s0.5-1.6,1.4-1.6
		C132.6,110.4,133.1,110.6,133.3,111z M131.2,112c0,0.6,0.3,1.3,1,1.3s1.1-0.6,1.1-1.3l0,0c0-0.8-0.4-1.3-1.1-1.3
		C131.5,110.6,131.2,111.3,131.2,112z"/>
	<path d="M139.2,111.7h-1.1v-0.3h1.5v1.8c-0.5,0.3-0.9,0.3-1.4,0.3c-1.2,0-2-0.9-2-2.1c0-1.3,0.8-2.1,2-2.1c0.5,0,1,0.1,1.3,0.3
		l-0.2,0.2c-0.3-0.1-0.7-0.2-1.1-0.2c-1.1,0-1.7,0.8-1.7,1.8s0.7,1.8,1.7,1.8c0.4,0,0.8-0.1,1-0.2V111.7z"/>
	<path d="M143.1,112.4h-0.6v1.1h-0.3v-1.1h-2V112l2-2.7h0.3v2.8h0.6V112.4z M142.1,112.1v-2.2l-1.7,2.2H142.1z"/>
	<path d="M143.5,111.4c0-0.9,0.3-2.1,1.4-2.1c1.1,0,1.4,1.2,1.4,2.1c0,1-0.3,2.2-1.4,2.2C143.8,113.5,143.5,112.2,143.5,111.4z
		 M143.9,111.4c0,0.7,0.2,1.9,1,1.9c0.9,0,1.1-1.2,1.1-1.9c0-0.6-0.2-1.8-1.1-1.8C144.1,109.6,143.9,110.7,143.9,111.4z"/>
	<path d="M149.5,113.2v0.3H147v-0.3l1-1c0.9-0.9,1.1-1.4,1.1-1.8s-0.3-0.8-0.9-0.8c-0.4,0-0.7,0.2-1,0.4l-0.2-0.2
		c0.4-0.3,0.8-0.5,1.2-0.5c0.8,0,1.2,0.5,1.2,1.1s-0.5,1.1-1.2,2l-0.8,0.8H149.5z"/>
	<path d="M150.3,113.2h0.5v0.5c0,0.1,0,0.2,0,0.3c-0.1,0.3-0.3,0.5-0.5,0.6l-0.1-0.1c0.2-0.1,0.4-0.4,0.4-0.7h-0.3L150.3,113.2
		L150.3,113.2z"/>
	<path d="M155,111.1c0.5,0.2,0.8,0.7,0.8,1.1c0,0.7-0.5,1.3-1.4,1.3c-0.5,0-0.9-0.1-1.2-0.4l0.2-0.2c0.3,0.3,0.7,0.4,1,0.4
		c0.7,0,1.1-0.5,1.1-1c0-0.6-0.4-1-1.3-1c-0.2,0-0.4,0-0.7,0l0.1-1.9h2v0.3h-1.7v1.4c0.1,0,0.2,0,0.3,0
		C154.5,110.9,154.8,111,155,111.1z"/>
	<path d="M156.6,113.2h0.5v0.5c0,0.1,0,0.2,0,0.3c-0.1,0.3-0.3,0.5-0.5,0.6l-0.1-0.1c0.2-0.1,0.4-0.4,0.4-0.7h-0.3L156.6,113.2
		L156.6,113.2z"/>
	<path d="M162,109.6h-1.4v3.9h-0.3v-3.9H159v-0.3h3.1v0.3H162z"/>
	<path d="M162.8,109.7l0.3-0.1v0.9h0.8v0.3h-0.8v2c0,0.4,0.3,0.5,0.7,0.5v0.3c-0.6,0-1.1-0.2-1.1-0.8v-2h-0.5v-0.3h0.5v-0.8H162.8z"
		/>
	<path d="M166.7,112.9c-0.2,0.4-0.6,0.7-1.1,0.7c-0.6,0-1.2-0.4-1.2-1.1v-1.9h0.3v1.9c0,0.6,0.4,0.9,0.8,0.9c0.6,0,1-0.5,1-1.1v-1.7
		h0.3v3h-0.3v-0.7H166.7z"/>
	<path d="M170.2,110.5l-1.4,1.3l1.8,1.7h-0.5l-1.7-1.6v1.6H168v-4.3h0.3v2.5l1.4-1.3h0.5V110.5z"/>
	<path d="M172.3,110.8c-0.2-0.1-0.4-0.2-0.7-0.2c-0.4,0-0.6,0.2-0.6,0.5s0.3,0.5,0.8,0.7s0.8,0.4,0.8,0.9c0,0.6-0.5,0.8-1,0.8
		c-0.4,0-0.7-0.1-1.1-0.4l0.2-0.2c0.2,0.2,0.5,0.3,0.9,0.3s0.7-0.2,0.7-0.5s-0.3-0.5-0.7-0.6c-0.4-0.2-0.9-0.4-0.9-0.9
		c0-0.6,0.5-0.8,0.9-0.8c0.3,0,0.6,0.1,0.9,0.2L172.3,110.8z"/>
	<path d="M175.5,113.2c-0.3,0.2-0.6,0.3-1,0.3c-0.9,0-1.5-0.6-1.5-1.5s0.5-1.6,1.4-1.6s1.3,0.7,1.3,1.4c0,0.1,0,0.1,0,0.2h-2.4
		c0,0.9,0.7,1.3,1.2,1.3c0.3,0,0.6-0.1,0.8-0.2L175.5,113.2z M175.4,111.7c0-0.5-0.4-1.1-1-1.1s-1,0.6-1,1.1H175.4z"/>
	<path d="M176.2,111.9c0-1,0.6-1.6,1.5-1.6s1.4,0.6,1.4,1.6s-0.6,1.6-1.5,1.6C176.8,113.5,176.2,112.9,176.2,111.9z M176.6,111.9
		c0,0.8,0.5,1.3,1.1,1.3s1.1-0.5,1.1-1.3s-0.5-1.3-1.1-1.3S176.6,111.1,176.6,111.9z"/>
	<path d="M180.2,110.9c0.2-0.4,0.6-0.5,0.9-0.5c0.4,0,0.8,0.3,0.9,0.7c0.2-0.4,0.6-0.7,1-0.7c0.6,0,1.1,0.4,1.1,1v2.1h-0.3v-2.1
		c0-0.5-0.3-0.7-0.8-0.7c-0.4,0-0.8,0.3-0.8,0.9v1.9h-0.3v-2c0-0.5-0.4-0.8-0.8-0.8c-0.5,0-0.8,0.4-0.8,0.9v1.9H180v-3h0.3
		L180.2,110.9L180.2,110.9z"/>
	<path d="M184.8,111.6v-0.3h2.6v0.3H184.8z"/>
	<path d="M188.4,111.1c0.3-0.5,0.7-0.7,1.1-0.7v0.3h-0.1c-0.6,0-1,0.5-1,1v1.8h-0.3v-3h0.3V111.1z"/>
	<path d="M189.7,111.9c0-1,0.6-1.6,1.5-1.6c0.8,0,1.4,0.6,1.4,1.6s-0.6,1.6-1.5,1.6C190.3,113.5,189.7,112.9,189.7,111.9z
		 M190,111.9c0,0.8,0.5,1.3,1.1,1.3s1.1-0.5,1.1-1.3s-0.5-1.3-1.1-1.3S190,111.1,190,111.9z"/>
	<path d="M195.6,113.5v-3.7l-0.7,0.6l-0.2-0.2l0.9-0.8h0.3v4.1H195.6z"/>
	<path d="M197.4,111c0.2-0.4,0.6-0.7,1.1-0.7c0.6,0,1.2,0.4,1.2,1.1v2h-0.3v-2c0-0.6-0.4-0.9-0.9-0.9c-0.6,0-1,0.6-1,1.1v1.7H197v-3
		h0.3L197.4,111L197.4,111z"/>
	<path d="M200.6,110.6c0.3-0.2,0.7-0.3,1-0.3c0.5,0,0.9,0.2,1,0.6c0.1,0.1,0.1,0.3,0.1,0.5v1.4c0,0.2,0,0.4,0,0.6h-0.3
		c0-0.1-0.1-0.4-0.1-0.4c-0.2,0.3-0.6,0.4-1.1,0.4s-1-0.4-1-1c0-0.7,0.6-1,1.5-1c0.2,0,0.4,0,0.6,0v-0.1c0-0.5-0.2-0.8-0.8-0.8
		C201.3,110.5,200.9,110.6,200.6,110.6L200.6,110.6z M202.4,111.8c-0.2,0-0.4,0-0.5,0c-0.8,0-1.2,0.3-1.2,0.8c0,0.4,0.4,0.7,0.8,0.7
		c0.6,0,1-0.4,1-0.8v-0.7H202.4z"/>
	<path d="M203.5,111.6v-0.3h2.6v0.3H203.5z"/>
	<path d="M209,111v-0.5h0.3v2.8c0,1.1-0.7,1.5-1.4,1.5c-0.4,0-0.7-0.1-1.1-0.3l0.1-0.3c0.3,0.1,0.6,0.2,0.9,0.2
		c0.6,0,1.1-0.4,1.1-1.2v-0.4c-0.2,0.4-0.6,0.6-1.1,0.6c-0.8,0-1.4-0.6-1.4-1.5c0-1,0.5-1.6,1.4-1.6
		C208.3,110.4,208.8,110.5,209,111z M206.9,111.9c0,0.6,0.3,1.2,1,1.2s1-0.6,1-1.2c0-0.8-0.4-1.3-1-1.3
		C207.3,110.6,206.9,111.3,206.9,111.9z"/>
	<path d="M210.2,109.2h0.5v0.5h-0.5V109.2z M210.3,110.5h0.3v3h-0.3V110.5z"/>
	<path d="M211.6,109.2h0.3v4.3h-0.3V109.2z"/>
	<path d="M212.9,113.2h0.5v0.5c0,0.1,0,0.2,0,0.3c-0.1,0.3-0.3,0.5-0.5,0.6l-0.1-0.1c0.2-0.1,0.4-0.4,0.4-0.7h-0.3L212.9,113.2
		L212.9,113.2z"/>
	<path d="M107.6,117.7c-0.3-0.2-0.6-0.3-1-0.3c-0.6,0-0.9,0.3-0.9,0.7c0,0.5,0.4,0.7,1.1,1c0.6,0.3,1.1,0.6,1.1,1.2
		c0,0.8-0.7,1.1-1.4,1.1c-0.5,0-1-0.1-1.4-0.5l0.2-0.3c0.3,0.2,0.8,0.5,1.2,0.5c0.5,0,1.1-0.2,1.1-0.8c0-0.4-0.4-0.7-1.1-1
		s-1.2-0.5-1.2-1.2c0-0.8,0.7-1,1.3-1c0.4,0,0.8,0.1,1.2,0.3L107.6,117.7z"/>
	<path d="M111,121.1c-0.3,0.2-0.6,0.3-1,0.3c-0.9,0-1.5-0.6-1.5-1.5s0.5-1.6,1.4-1.6s1.3,0.7,1.3,1.4c0,0.1,0,0.1,0,0.2h-2.4
		c0,0.9,0.7,1.3,1.2,1.3c0.3,0,0.6-0.1,0.8-0.2L111,121.1z M110.9,119.6c0-0.5-0.4-1.1-1-1.1s-1,0.6-1,1.1H110.9z"/>
	<path d="M111.6,119.8c0-1,0.6-1.6,1.5-1.6c0.8,0,1.4,0.6,1.4,1.6s-0.6,1.6-1.5,1.6C112.3,121.4,111.6,120.8,111.6,119.8z
		 M112,119.8c0,0.8,0.5,1.3,1.1,1.3s1.1-0.5,1.1-1.3s-0.5-1.3-1.1-1.3S112,119,112,119.8z"/>
	<path d="M115.6,118.9c0.2-0.4,0.6-0.7,1.1-0.7c0.6,0,1.2,0.4,1.2,1.1v2h-0.3v-2c0-0.6-0.4-0.9-0.9-0.9c-0.6,0-1,0.6-1,1.1v1.7h-0.3
		v-3h0.3L115.6,118.9L115.6,118.9z"/>
	<path d="M120.9,118.9v-0.5h0.3v2.8c0,1.1-0.7,1.5-1.4,1.5c-0.4,0-0.7-0.1-1.1-0.3l0.1-0.3c0.3,0.1,0.6,0.2,0.9,0.2
		c0.6,0,1.1-0.4,1.1-1.2v-0.4c-0.2,0.4-0.6,0.6-1.1,0.6c-0.8,0-1.4-0.6-1.4-1.5c0-1,0.5-1.6,1.4-1.6
		C120.2,118.2,120.7,118.4,120.9,118.9z M118.8,119.8c0,0.6,0.3,1.2,1,1.2s1-0.6,1-1.2c0-0.8-0.5-1.3-1-1.3
		C119.2,118.5,118.8,119.1,118.8,119.8z"/>
	<path d="M124.5,118.9v-1.8h0.3v4.3h-0.3v-0.6c-0.2,0.4-0.6,0.6-1.1,0.6c-0.8,0-1.4-0.6-1.4-1.6s0.5-1.6,1.4-1.6
		C123.8,118.2,124.3,118.5,124.5,118.9z M122.4,119.8c0,0.6,0.3,1.3,1,1.3s1.1-0.6,1.1-1.3l0,0c0-0.8-0.4-1.3-1.1-1.3
		C122.7,118.5,122.4,119.2,122.4,119.8z"/>
	<path d="M125.5,119.8c0-1,0.6-1.6,1.5-1.6c0.8,0,1.4,0.6,1.4,1.6s-0.6,1.6-1.5,1.6C126.2,121.4,125.5,120.8,125.5,119.8z
		 M125.9,119.8c0,0.8,0.5,1.3,1.1,1.3s1.1-0.5,1.1-1.3s-0.5-1.3-1.1-1.3C126.4,118.5,125.9,119,125.9,119.8z"/>
	<path d="M129.5,118.9c0.2-0.4,0.6-0.7,1.1-0.7c0.6,0,1.2,0.4,1.2,1.1v2h-0.3v-2c0-0.6-0.4-0.9-0.9-0.9c-0.6,0-1,0.6-1,1.1v1.7h-0.3
		v-3h0.3v0.7H129.5z"/>
	<path d="M134.8,118.9v-0.5h0.3v2.8c0,1.1-0.7,1.5-1.4,1.5c-0.4,0-0.7-0.1-1.1-0.3l0.1-0.3c0.3,0.1,0.6,0.2,0.9,0.2
		c0.6,0,1.1-0.4,1.1-1.2v-0.4c-0.2,0.4-0.6,0.6-1.1,0.6c-0.8,0-1.4-0.6-1.4-1.5c0-1,0.5-1.6,1.4-1.6
		C134.1,118.2,134.6,118.4,134.8,118.9z M132.7,119.8c0,0.6,0.3,1.2,1,1.2s1-0.6,1-1.2c0-0.8-0.5-1.3-1-1.3
		C133.1,118.5,132.7,119.1,132.7,119.8z"/>
	<path d="M136,119.4v-0.3h2.6v0.3H136z"/>
	<path d="M141.5,118.9v-0.5h0.3v2.8c0,1.1-0.7,1.5-1.4,1.5c-0.4,0-0.7-0.1-1.1-0.3l0.1-0.3c0.3,0.1,0.6,0.2,0.9,0.2
		c0.6,0,1.1-0.4,1.1-1.2v-0.4c-0.2,0.4-0.6,0.6-1.1,0.6c-0.8,0-1.4-0.6-1.4-1.5c0-1,0.5-1.6,1.4-1.6
		C140.8,118.2,141.3,118.4,141.5,118.9z M139.4,119.8c0,0.6,0.3,1.2,1,1.2s1-0.6,1-1.2c0-0.8-0.5-1.3-1-1.3
		C139.8,118.5,139.4,119.1,139.4,119.8z"/>
	<path d="M145,120.7c-0.2,0.4-0.6,0.7-1.1,0.7c-0.6,0-1.2-0.4-1.2-1.1v-1.9h0.3v1.9c0,0.6,0.4,0.9,0.8,0.9c0.6,0,1-0.5,1-1.1v-1.7
		h0.3v3H145V120.7z"/>
	<path d="M146.3,121.1h0.5v0.5c0,0.1,0,0.2,0,0.3c-0.1,0.3-0.3,0.5-0.5,0.6l-0.1-0.1c0.2-0.1,0.4-0.4,0.4-0.7h-0.3L146.3,121.1
		L146.3,121.1z"/>
	<path d="M151.5,117.7c-0.3-0.2-0.6-0.3-1-0.3c-0.6,0-0.9,0.3-0.9,0.7c0,0.5,0.4,0.7,1.1,1c0.6,0.3,1.1,0.6,1.1,1.2
		c0,0.8-0.7,1.1-1.4,1.1c-0.5,0-1-0.1-1.4-0.5l0.2-0.3c0.3,0.2,0.8,0.5,1.2,0.5c0.5,0,1.1-0.2,1.1-0.8c0-0.4-0.4-0.7-1.1-1
		c-0.7-0.3-1.2-0.5-1.2-1.2c0-0.8,0.7-1,1.3-1c0.4,0,0.8,0.1,1.2,0.3L151.5,117.7z"/>
	<path d="M154.9,121.1c-0.3,0.2-0.6,0.3-1,0.3c-0.9,0-1.5-0.6-1.5-1.5s0.5-1.6,1.4-1.6s1.3,0.7,1.3,1.4c0,0.1,0,0.1,0,0.2h-2.4
		c0,0.9,0.7,1.3,1.2,1.3c0.3,0,0.6-0.1,0.8-0.2L154.9,121.1z M154.8,119.6c0-0.5-0.4-1.1-1-1.1s-1,0.6-1,1.1H154.8z"/>
	<path d="M155.6,119.8c0-1,0.6-1.6,1.5-1.6c0.8,0,1.4,0.6,1.4,1.6s-0.6,1.6-1.5,1.6C156.2,121.4,155.6,120.8,155.6,119.8z
		 M155.9,119.8c0,0.8,0.5,1.3,1.1,1.3s1.1-0.5,1.1-1.3s-0.5-1.3-1.1-1.3S155.9,119,155.9,119.8z"/>
	<path d="M161.4,120.7c-0.2,0.4-0.6,0.7-1.1,0.7c-0.6,0-1.2-0.4-1.2-1.1v-1.9h0.3v1.9c0,0.6,0.4,0.9,0.8,0.9c0.6,0,1-0.5,1-1.1v-1.7
		h0.3v3h-0.3v-0.7H161.4z"/>
	<path d="M162.6,117.1h0.3v4.3h-0.3V117.1z"/>
	<path d="M163.9,121.1h0.5v0.5c0,0.1,0,0.2,0,0.3c-0.1,0.3-0.3,0.5-0.5,0.6l-0.1-0.1c0.2-0.1,0.4-0.4,0.4-0.7h-0.3L163.9,121.1
		L163.9,121.1z"/>
	<path d="M167.4,119.1l2-1.9h0.5l-2.1,1.9l2.4,2.2h-0.5L167.4,119.1l0,2.2h-0.3v-4.1h0.3L167.4,119.1L167.4,119.1z"/>
	<path d="M170.3,119.8c0-1,0.6-1.6,1.5-1.6s1.4,0.6,1.4,1.6s-0.6,1.6-1.5,1.6C170.9,121.4,170.3,120.8,170.3,119.8z M170.6,119.8
		c0,0.8,0.5,1.3,1.1,1.3s1.1-0.5,1.1-1.3s-0.5-1.3-1.1-1.3S170.6,119,170.6,119.8z"/>
	<path d="M174.2,118.9c0.3-0.5,0.7-0.7,1.1-0.7v0.3h-0.1c-0.6,0-1,0.5-1,1v1.8h-0.3v-3h0.3V118.9z"/>
	<path d="M177.9,121.1c-0.3,0.2-0.6,0.3-1,0.3c-0.9,0-1.5-0.6-1.5-1.5s0.5-1.6,1.4-1.6s1.3,0.7,1.3,1.4c0,0.1,0,0.1,0,0.2h-2.4
		c0,0.9,0.7,1.3,1.2,1.3c0.3,0,0.6-0.1,0.8-0.2L177.9,121.1z M177.8,119.6c0-0.5-0.4-1.1-1-1.1s-1,0.6-1,1.1H177.8z"/>
	<path d="M179,118.5c0.3-0.2,0.7-0.3,1-0.3c0.5,0,0.9,0.2,1,0.6c0.1,0.1,0.1,0.3,0.1,0.5v1.4c0,0.2,0,0.4,0,0.6h-0.3
		c0-0.1-0.1-0.4-0.1-0.4c-0.2,0.3-0.6,0.4-1.1,0.4s-1-0.4-1-1c0-0.7,0.6-1,1.5-1c0.2,0,0.4,0,0.6,0v-0.1c0-0.5-0.2-0.8-0.8-0.8
		C179.7,118.4,179.3,118.5,179,118.5L179,118.5z M180.7,119.7c-0.2,0-0.4,0-0.5,0c-0.8,0-1.2,0.3-1.2,0.8c0,0.4,0.4,0.7,0.8,0.7
		c0.6,0,1-0.4,1-0.8v-0.7H180.7z"/>
</g>
<path d="M105.3,74.9h3.2v0.6H106v1.2h2v0.6h-2v1.3h2.4v0.6h-3.2L105.3,74.9L105.3,74.9z"/>
<path d="M105.3,86.5h1.1l1.1,3.2l0,0l1.1-3.2h1.1v4.2h-0.8v-3.3l0,0l-1.1,3.3h-0.6l-1-3.3l0,0v3.3h-0.8L105.3,86.5L105.3,86.5z"/>
<text transform="matrix(1.0309 0 0 1 113.0854 78.7972)" class="st5 st7" id="email">mysc@mysc.co.kr</text>
<text transform="matrix(1.0309 0 0 1 113.0854 90.8251)" class="st5 st7" id="cellPhoneNum">82 10 1234 5678</text>
<path d="M182.5,75.2h-1.3v-0.6h3.3v0.6h-1.2v3.6h-0.8V75.2z"/>
<path d="M181.6,86.5h2.7v0.6h-1.9v1.3h1.5V89h-1.5v1.8h-0.8V86.5z"/>
<g>
	<text transform="matrix(1.0309 0 0 1 187.5918 78.7972)" class="st5 st7" id="officePhoneNum">82 2 532 1237</text>
	<text transform="matrix(1.0309 0 0 1 187.5918 90.8251)" class="st5 st7" id="faxNum">82 2 6008 1126</text>
</g>
<g>
	<g>
		<path d="M19,25.3l3,0.9v0.4l-3.5-1.1v-0.4l3.1-0.9l-3.1-0.9v-0.4l3.5-1.1v0.4l-3,0.9l3,0.9v0.4L19,25.3z"/>
		<path d="M19,30.2l3,0.9v0.4l-3.5-1.1V30l3.1-0.9l-3.1-0.9v-0.4l3.5-1.1v0.4L19,28l3,0.9v0.4L19,30.2z"/>
		<path d="M19,35.1l3,0.9v0.4l-3.5-1.1V35l3.1-0.9l-3.1-0.9v-0.4l3.5-1.1v0.4L19,33l3,0.9v0.4L19,35.1z"/>
		<path d="M18.8,37.1v0.6h-0.6v-0.6H18.8z"/>
		<path d="M21.5,39.1c0.5,0.3,0.6,0.7,0.6,1c0,0.5-0.3,0.9-0.8,1.1c0.5,0.3,0.8,0.7,0.8,1.1c0,0.7-0.4,1.2-1.2,1.2h-2.4v-0.4h2.4
			c0.6,0,0.9-0.4,0.9-0.9s-0.4-1-1.1-1h-2.2V41h2.4c0.6,0,0.9-0.4,0.9-0.9s-0.4-1-1.1-1h-2.2v-0.4H22v0.4H21.5z"/>
		<path d="M17.3,44.4c0.2,0.7,0.5,1,1.1,1.2l3.5-1.4v0.4l-3.1,1.1l3.1,1.1v0.4L18.7,46c-1-0.4-1.6-0.7-1.8-1.7L17.3,44.4z"/>
		<path d="M21.6,49.7c0.1-0.2,0.2-0.5,0.2-0.8c0-0.5-0.2-0.7-0.5-0.7c-0.4,0-0.5,0.3-0.8,0.9c-0.3,0.5-0.5,1-1,1c-0.7,0-1-0.6-1-1.2
			c0-0.4,0.1-0.9,0.5-1.2l0.3,0.2c-0.2,0.2-0.4,0.6-0.4,1s0.2,0.8,0.6,0.8c0.3,0,0.5-0.4,0.7-0.8c0.2-0.5,0.5-1.1,1.1-1.1
			c0.7,0,0.9,0.6,0.9,1.1c0,0.4-0.1,0.7-0.3,1L21.6,49.7z"/>
		<path d="M18.8,53.6c-0.3-0.3-0.4-0.7-0.4-1.2c0-1.1,0.8-1.8,1.8-1.8c1.1,0,1.9,0.7,1.9,1.8c0,0.4-0.1,0.8-0.3,1.1l-0.3-0.2
			c0.1-0.2,0.2-0.6,0.2-0.9c0-0.8-0.6-1.4-1.5-1.4c-1,0-1.5,0.8-1.5,1.4c0,0.4,0.1,0.7,0.3,1L18.8,53.6z"/>
		<path d="M18.8,54.3v0.6h-0.6v-0.6H18.8z"/>
		<path d="M18.8,58.7c-0.3-0.3-0.4-0.7-0.4-1.2c0-1.1,0.8-1.8,1.8-1.8c1.1,0,1.9,0.7,1.9,1.8c0,0.4-0.1,0.8-0.3,1.1l-0.3-0.2
			c0.1-0.2,0.2-0.6,0.2-0.9c0-0.8-0.6-1.4-1.5-1.4c-1,0-1.5,0.8-1.5,1.4c0,0.4,0.1,0.7,0.3,1L18.8,58.7z"/>
		<path d="M20.3,59.2c1.1,0,1.8,0.7,1.8,1.7s-0.7,1.7-1.8,1.7s-1.9-0.8-1.9-1.7C18.4,59.9,19.1,59.2,20.3,59.2z M20.3,59.6
			c-1,0-1.5,0.6-1.5,1.3s0.6,1.3,1.5,1.3c1,0,1.5-0.6,1.5-1.3C21.8,60.2,21.3,59.6,20.3,59.6z"/>
		<path d="M18.8,63.4V64h-0.6v-0.6H18.8z"/>
		<path d="M22,67.6l-1.6-1.7L18.5,68v-0.5l1.9-2h-1.9v-0.4h5v0.4h-3l1.5,1.6V67.6z"/>
		<path d="M21.3,68.9c0.6,0.3,0.8,0.8,0.8,1.3h-0.4v-0.1c0-0.7-0.6-1.2-1.2-1.2h-2.1v-0.4H22v0.4C22,68.9,21.3,68.9,21.3,68.9z"/>
	</g>
</g>
<text id="engName" transform="matrix(1 0 0 1 105.3689 45.5857)" class="st5 st8">Gildong Hong  |  Robin Hood</text>
<path d="M146.4,33.3h-0.5v-6.8h0.5V33.3z"/>
<rect y="0" class="st9" width="255.1" height="141.7"/>
</svg>
