<?xml version="1.0" encoding="utf-8"?>
<!-- Generator: Adobe Illustrator 25.4.1, SVG Export Plug-In . SVG Version: 6.00 Build 0)  -->
<svg version="1.1" id="Layer_1" xmlns="http://www.w3.org/2000/svg" xmlns:xlink="http://www.w3.org/1999/xlink" x="0px" y="0px"
	 viewBox="0 0 255.1 141.7" style="enable-background:new 0 0 255.1 141.7;" xml:space="preserve">
<style type="text/css">
	.st0{fill:#48B7B1;}
	.st1{fill:#111111;}
	.st2{fill:none;stroke:#000000;stroke-width:0.25;stroke-miterlimit:10;}
</style>
<g>
	<path class="st0" d="M46.7,27.9c0-2.7-1.2-4.2-3.7-4.2c-1.5,0-2.8,0.7-3.4,1.4c-0.5,0.6-0.6,1-0.6,2.4v6.2c0,2.9,0.1,3.3,1.5,3.5
		l0.8,0.1c0.3,0.2,0.2,0.9-0.1,1c-1.2-0.1-2.4-0.1-3.8-0.1c-1.5,0-2.5,0-3.7,0.1c-0.3-0.1-0.4-0.8-0.1-1l0.7-0.1
		C36,37,36,36.6,36,33.7v-5.9c0-2.7-1.2-4.2-3.7-4.2c-1.7,0-2.8,0.7-3.4,1.5c-0.4,0.5-0.6,1-0.6,2.3v6.3c0,2.9,0.1,3.3,1.5,3.5
		l0.7,0.1c0.3,0.2,0.2,0.9-0.1,1c-1.1-0.1-2.3-0.1-3.7-0.1c-1.5,0-2.7,0-3.9,0.1c-0.3-0.1-0.4-0.8-0.1-1l1-0.1
		c1.5-0.2,1.5-0.6,1.5-3.5v-7.1c0-1.6,0-1.8-1.1-2.5l-0.4-0.2c-0.2-0.2-0.2-0.6,0-0.7c0.9-0.3,3.2-1.4,4-2c0.2,0,0.4,0.1,0.4,0.3
		c-0.1,0.9-0.1,1.5-0.1,1.9c0,0.2,0.2,0.4,0.4,0.4c1.5-1.1,3.4-2.1,5.4-2.1c2,0,3.1,0.7,4.3,2.4c0.4,0.1,0.6-0.1,1-0.3
		c1.6-1.1,3.6-2.1,5.5-2.1c3.2,0,4.8,2.2,4.8,5v6.9c0,2.9,0.1,3.3,1.5,3.5l1,0.1c0.3,0.2,0.2,0.9-0.1,1c-1.3-0.1-2.5-0.1-3.9-0.1
		c-1.5,0-2.5,0-3.7,0.1c-0.3-0.1-0.4-0.8-0.1-1l0.7-0.1c1.5-0.2,1.5-0.6,1.5-3.5V27.9z"/>
	<path class="st0" d="M52,46.6c0-1.1,0.7-1.6,1.6-1.6h0.8c0.6,0,1-0.3,1.3-0.7c1.2-1.8,2-3.5,2.3-4.5c0.1-0.3,0.4-1.2,0.4-1.7
		c0-0.8-0.2-1.3-0.7-2.8l-3.1-8.6c-0.7-1.9-1-2.9-2.4-3.1l-1-0.2c-0.2-0.2-0.2-0.9,0.1-1c1.3,0.1,2.5,0.1,3.8,0.1
		c1.1,0,2.2,0,3.5-0.1c0.3,0.1,0.4,0.8,0.1,1l-1,0.2c-0.6,0.1-0.9,0.2-0.9,0.5c0,0.5,0.9,3.1,1.2,3.8l1.3,3.7c0.2,0.6,1,2.8,1.2,2.9
		c0.1-0.1,0.8-1.3,1.5-3l1.4-3.2c0.9-2.1,1.4-3.6,1.4-4c0-0.3-0.2-0.6-1-0.7l-1.2-0.2c-0.3-0.2-0.2-0.9,0.1-1
		c1.3,0.1,2.5,0.1,3.6,0.1c1,0,1.9,0,3.1-0.1c0.3,0.2,0.4,0.8,0.1,1l-0.7,0.1c-1.3,0.2-2.1,1.4-3.4,4.3L63,32.3
		c-1.3,2.7-4.6,9.7-6.6,14.1c-0.7,1.5-1.7,1.9-2.6,1.9C52.6,48.3,52,47.6,52,46.6"/>
	<path class="st0" d="M80,22.5c0.4,0.9,0.6,2.2,0.6,3.3c-0.2,0.3-0.8,0.4-1,0.1C79,24.1,77.8,23,76.1,23c-1.6,0-2.6,1-2.6,2.5
		c0,1.7,1.7,2.5,3.1,3.3c2.1,1.2,4.1,2.6,4.1,5.4c0,3.1-2.8,4.6-5.8,4.6c-1.9,0-3.3-0.4-4.3-1.2c-0.3-0.8-0.6-2.7-0.5-4.1
		c0.2-0.2,0.7-0.3,0.9,0c0.7,2.2,2,4.2,4.3,4.2c1.5,0,2.7-0.8,2.7-2.6c0-1.9-1.6-2.9-3.1-3.7c-2.3-1.3-4-2.7-4-5
		c0-2.9,2.4-4.6,5.5-4.6C78.2,21.8,79.7,22.2,80,22.5"/>
	<path class="st0" d="M96.9,22.5c0.3,0.3,0.6,0.9,0.6,1.6c0,0.7-0.4,1.5-0.9,1.5c-0.2,0-0.4-0.1-0.6-0.3c-0.9-1.1-2.4-2.1-4-2.1
		c-2.8,0-5.6,2.2-5.6,6.5c0,3.1,2.2,6.9,6.5,6.9c2.3,0,3.5-1.1,4.5-2.4c0.3-0.1,0.7,0.2,0.7,0.6c-1.4,3-4.4,4.1-6.7,4.1
		c-2.1,0-4.1-0.7-5.5-2.1c-1.4-1.4-2.3-3.4-2.3-6c0-4.4,3.1-9,9.8-9C94.2,21.8,95.8,22,96.9,22.5"/>
</g>
<g>
	<g>
		<path class="st1" d="M213.6,48.3c0-0.1-0.1-0.1-0.2-0.2c-0.1-0.1-0.2-0.1-0.3-0.1c-0.1,0-0.2-0.1-0.3-0.1c-0.2,0-0.3,0-0.5,0.1
			c-0.1,0.1-0.2,0.2-0.3,0.3c-0.1,0.1-0.1,0.3-0.2,0.4c0,0.2-0.1,0.3-0.1,0.5c0,0.2,0,0.3,0.1,0.5c0,0.1,0.1,0.3,0.2,0.4
			c0.1,0.1,0.2,0.2,0.3,0.3c0.1,0.1,0.3,0.1,0.5,0.1c0.3,0,0.5-0.1,0.6-0.2c0.1-0.2,0.2-0.4,0.3-0.6h0.8c0,0.2-0.1,0.4-0.2,0.6
			c-0.1,0.2-0.2,0.4-0.3,0.5c-0.1,0.1-0.3,0.2-0.5,0.3c-0.2,0.1-0.4,0.1-0.6,0.1c-0.3,0-0.6-0.1-0.8-0.2c-0.2-0.1-0.4-0.2-0.6-0.4
			c-0.2-0.2-0.3-0.4-0.4-0.6c-0.1-0.2-0.1-0.5-0.1-0.8c0-0.3,0-0.5,0.1-0.8c0.1-0.2,0.2-0.5,0.4-0.6c0.2-0.2,0.4-0.3,0.6-0.4
			c0.2-0.1,0.5-0.2,0.8-0.2c0.2,0,0.4,0,0.6,0.1c0.2,0.1,0.4,0.1,0.5,0.3c0.1,0.1,0.3,0.3,0.4,0.4c0.1,0.2,0.2,0.4,0.2,0.6h-0.8
			C213.7,48.5,213.7,48.4,213.6,48.3"/>
		<path class="st1" d="M216.6,49c-0.1-0.1-0.2-0.1-0.4-0.1c-0.1,0-0.2,0-0.3,0.1c-0.1,0-0.1,0.1-0.2,0.2c0,0.1-0.1,0.1-0.1,0.2
			c0,0.1,0,0.1,0,0.2h1.2C216.7,49.3,216.7,49.1,216.6,49 M215.7,50.5c0.1,0.1,0.3,0.2,0.5,0.2c0.2,0,0.3,0,0.4-0.1
			c0.1-0.1,0.2-0.2,0.2-0.2h0.7c-0.1,0.3-0.3,0.6-0.5,0.7c-0.2,0.1-0.5,0.2-0.8,0.2c-0.2,0-0.4,0-0.6-0.1c-0.2-0.1-0.3-0.2-0.4-0.3
			c-0.1-0.1-0.2-0.3-0.3-0.5c-0.1-0.2-0.1-0.4-0.1-0.6c0-0.2,0-0.4,0.1-0.6c0.1-0.2,0.2-0.3,0.3-0.5c0.1-0.1,0.3-0.2,0.4-0.3
			c0.2-0.1,0.4-0.1,0.6-0.1c0.2,0,0.4,0,0.6,0.1c0.2,0.1,0.3,0.2,0.4,0.4c0.1,0.2,0.2,0.3,0.2,0.5c0,0.2,0.1,0.4,0.1,0.6h-2
			C215.5,50.2,215.6,50.3,215.7,50.5"/>
		<path class="st1" d="M218.6,48.4v0.5h0c0-0.1,0.1-0.2,0.1-0.2c0.1-0.1,0.1-0.1,0.2-0.2c0.1-0.1,0.2-0.1,0.2-0.1c0.1,0,0.2,0,0.3,0
			c0,0,0.1,0,0.2,0V49c0,0-0.1,0-0.1,0c0,0-0.1,0-0.1,0c-0.1,0-0.3,0-0.3,0.1c-0.1,0-0.2,0.1-0.2,0.2c-0.1,0.1-0.1,0.2-0.1,0.3
			c0,0.1,0,0.2,0,0.3v1.2h-0.8v-2.7H218.6z"/>
		<path class="st1" d="M221.6,48.4v0.5h-0.6v1.4c0,0.1,0,0.2,0.1,0.3c0,0,0.1,0.1,0.3,0.1c0,0,0.1,0,0.1,0c0,0,0.1,0,0.1,0v0.6
			c-0.1,0-0.1,0-0.2,0c-0.1,0-0.2,0-0.2,0c-0.1,0-0.2,0-0.3,0c-0.1,0-0.2,0-0.3-0.1c-0.1,0-0.1-0.1-0.2-0.2c0-0.1-0.1-0.2-0.1-0.3
			v-1.6h-0.5v-0.5h0.5v-0.8h0.8v0.8H221.6z"/>
		<path class="st1" d="M222.8,51.1H222v-2.7h0.8V51.1z M222,47.3h0.8V48H222V47.3z"/>
		<path class="st1" d="M223.1,48.9v-0.5h0.5v-0.2c0-0.2,0.1-0.4,0.2-0.6c0.2-0.2,0.4-0.2,0.7-0.2c0.1,0,0.1,0,0.2,0
			c0.1,0,0.1,0,0.2,0v0.6c-0.1,0-0.2,0-0.3,0c-0.1,0-0.2,0-0.2,0.1c0,0-0.1,0.1-0.1,0.2v0.2h0.5v0.5h-0.5v2.2h-0.8v-2.2H223.1z"/>
		<path class="st1" d="M226,51.1h-0.8v-2.7h0.8V51.1z M225.2,47.3h0.8V48h-0.8V47.3z"/>
		<path class="st1" d="M228,49c-0.1-0.1-0.2-0.1-0.4-0.1c-0.1,0-0.2,0-0.3,0.1c-0.1,0-0.1,0.1-0.2,0.2c0,0.1-0.1,0.1-0.1,0.2
			c0,0.1,0,0.1,0,0.2h1.2C228.2,49.3,228.1,49.1,228,49 M227.2,50.5c0.1,0.1,0.3,0.2,0.5,0.2c0.2,0,0.3,0,0.4-0.1
			c0.1-0.1,0.2-0.2,0.2-0.2h0.7c-0.1,0.3-0.3,0.6-0.5,0.7c-0.2,0.1-0.5,0.2-0.8,0.2c-0.2,0-0.4,0-0.6-0.1c-0.2-0.1-0.3-0.2-0.4-0.3
			c-0.1-0.1-0.2-0.3-0.3-0.5c-0.1-0.2-0.1-0.4-0.1-0.6c0-0.2,0-0.4,0.1-0.6c0.1-0.2,0.2-0.3,0.3-0.5c0.1-0.1,0.3-0.2,0.4-0.3
			c0.2-0.1,0.4-0.1,0.6-0.1c0.2,0,0.4,0,0.6,0.1c0.2,0.1,0.3,0.2,0.4,0.4c0.1,0.2,0.2,0.3,0.2,0.5c0,0.2,0.1,0.4,0.1,0.6h-2
			C227,50.2,227.1,50.3,227.2,50.5"/>
		<path class="st1" d="M231.2,49.4c0-0.1-0.1-0.2-0.1-0.3c-0.1-0.1-0.1-0.1-0.2-0.2c-0.1,0-0.2-0.1-0.3-0.1s-0.2,0-0.3,0.1
			c-0.1,0-0.2,0.1-0.2,0.2c-0.1,0.1-0.1,0.2-0.1,0.3c0,0.1,0,0.2,0,0.3c0,0.1,0,0.2,0,0.3c0,0.1,0.1,0.2,0.1,0.3
			c0.1,0.1,0.1,0.1,0.2,0.2c0.1,0.1,0.2,0.1,0.3,0.1c0.1,0,0.2,0,0.3-0.1c0.1,0,0.1-0.1,0.2-0.2c0-0.1,0.1-0.2,0.1-0.3
			c0-0.1,0-0.2,0-0.3C231.3,49.6,231.2,49.5,231.2,49.4 M231.3,50.8c-0.1,0.1-0.2,0.3-0.3,0.3c-0.1,0.1-0.3,0.1-0.5,0.1
			c-0.2,0-0.4,0-0.5-0.1c-0.2-0.1-0.3-0.2-0.4-0.3c-0.1-0.1-0.2-0.3-0.2-0.5c-0.1-0.2-0.1-0.4-0.1-0.6c0-0.2,0-0.4,0.1-0.5
			c0.1-0.2,0.1-0.3,0.2-0.5c0.1-0.1,0.2-0.2,0.4-0.3c0.2-0.1,0.3-0.1,0.5-0.1c0.2,0,0.3,0,0.5,0.1c0.1,0.1,0.3,0.2,0.3,0.3h0v-1.4
			h0.8v3.8h-0.7L231.3,50.8L231.3,50.8z"/>
		<path class="st1" d="M218.6,68h4c1.4,0,2.3-0.8,2.3-2.2c0-1.6-1.3-2-2.6-2h-3.7V68z M218.6,62.5h3.2c1.8,0,2.6-0.7,2.6-1.9
			c0-1.7-1.2-1.9-2.6-1.9h-3.2V62.5z M217,57.3h4.4c1.1,0,2.5,0,3.2,0.4c0.8,0.5,1.4,1.3,1.4,2.5c0,1.3-0.7,2.3-1.8,2.7v0
			c1.5,0.3,2.3,1.4,2.3,2.9c0,1.8-1.3,3.5-3.7,3.5H217V57.3z"/>
		<path class="st1" d="M221.4,52.7c-5.8,0-10.6,4.7-10.6,10.6c0,5.8,4.7,10.6,10.6,10.6c5.8,0,10.6-4.7,10.6-10.6
			C232,57.5,227.3,52.7,221.4,52.7 M230.6,63.3c0,5.1-4.1,9.2-9.2,9.2c-5.1,0-9.2-4.1-9.2-9.2c0-5.1,4.1-9.2,9.2-9.2
			C226.5,54.1,230.6,58.2,230.6,63.3"/>
		<path class="st1" d="M212.8,76.2c0-0.3-0.3-0.5-0.6-0.5c-0.5,0-0.7,0.4-0.7,0.9c0,0.4,0.2,0.9,0.7,0.9c0.4,0,0.6-0.2,0.6-0.6h0.6
			c-0.1,0.7-0.5,1.1-1.2,1.1c-0.8,0-1.3-0.6-1.3-1.4c0-0.8,0.5-1.4,1.3-1.4c0.6,0,1.1,0.3,1.2,1H212.8z"/>
		<path class="st1" d="M214.6,77.6c0.4,0,0.5-0.3,0.5-0.6c0-0.3-0.1-0.6-0.5-0.6c-0.4,0-0.5,0.3-0.5,0.6
			C214.1,77.3,214.3,77.6,214.6,77.6 M214.6,76c0.6,0,1,0.4,1,1c0,0.6-0.4,1-1,1c-0.6,0-1-0.4-1-1C213.6,76.4,214,76,214.6,76"/>
		<path class="st1" d="M215.9,76h0.5v0.4h0c0.1-0.2,0.4-0.4,0.6-0.4c0,0,0.1,0,0.1,0v0.5c0,0-0.1,0-0.2,0c-0.4,0-0.5,0.3-0.5,0.6V78
			h-0.5V76z"/>
		<path class="st1" d="M218.9,77c0-0.3-0.1-0.6-0.5-0.6c-0.3,0-0.5,0.3-0.5,0.6c0,0.3,0.1,0.6,0.5,0.6
			C218.8,77.6,218.9,77.3,218.9,77 M217.5,76h0.5v0.2h0c0.1-0.2,0.3-0.3,0.6-0.3c0.6,0,0.9,0.5,0.9,1c0,0.5-0.3,1-0.9,1
			c-0.2,0-0.5-0.1-0.6-0.3h0v0.9h-0.5V76z"/>
		<path class="st1" d="M220.7,77.6c0.4,0,0.5-0.3,0.5-0.6c0-0.3-0.1-0.6-0.5-0.6c-0.4,0-0.5,0.3-0.5,0.6
			C220.2,77.3,220.3,77.6,220.7,77.6 M220.7,76c0.6,0,1,0.4,1,1c0,0.6-0.4,1-1,1c-0.6,0-1-0.4-1-1C219.7,76.4,220.1,76,220.7,76"/>
		<path class="st1" d="M222,76h0.5v0.4h0c0.1-0.2,0.4-0.4,0.6-0.4c0,0,0.1,0,0.1,0v0.5c0,0-0.1,0-0.2,0c-0.4,0-0.5,0.3-0.5,0.6V78
			H222V76z"/>
		<path class="st1" d="M224.7,77c-0.1,0.1-0.3,0.1-0.4,0.1c-0.2,0-0.3,0.1-0.3,0.3c0,0.2,0.2,0.2,0.3,0.2c0.4,0,0.4-0.3,0.4-0.4V77z
			 M223.5,76.6c0-0.5,0.5-0.6,0.9-0.6c0.4,0,0.9,0.1,0.9,0.6v1c0,0.2,0,0.4,0.1,0.4h-0.5c0-0.1,0-0.1,0-0.2
			c-0.2,0.2-0.4,0.2-0.7,0.2c-0.4,0-0.7-0.2-0.7-0.6c0-0.4,0.3-0.5,0.7-0.6c0.3,0,0.6,0,0.6-0.3c0-0.2-0.2-0.3-0.3-0.3
			c-0.2,0-0.3,0.1-0.4,0.3H223.5z"/>
		<path class="st1" d="M226.3,76h0.4v0.4h-0.4v1c0,0.2,0,0.2,0.2,0.2c0.1,0,0.1,0,0.2,0V78c-0.1,0-0.2,0-0.3,0
			c-0.3,0-0.6-0.1-0.6-0.5v-1.1h-0.3V76h0.3v-0.6h0.5V76z"/>
		<path class="st1" d="M227,76h0.5V78H227V76z M227.5,75.7H227v-0.4h0.5V75.7z"/>
		<path class="st1" d="M228.8,77.6c0.4,0,0.5-0.3,0.5-0.6c0-0.3-0.1-0.6-0.5-0.6c-0.4,0-0.5,0.3-0.5,0.6
			C228.3,77.3,228.4,77.6,228.8,77.6 M228.8,76c0.6,0,1,0.4,1,1c0,0.6-0.4,1-1,1c-0.6,0-1-0.4-1-1C227.8,76.4,228.2,76,228.8,76"/>
		<path class="st1" d="M230.1,76h0.5v0.3h0c0.1-0.2,0.4-0.3,0.6-0.3c0.6,0,0.7,0.3,0.7,0.8V78h-0.5v-1.1c0-0.3-0.1-0.5-0.3-0.5
			c-0.3,0-0.4,0.2-0.4,0.6v1h-0.5V76z"/>
		<rect x="210.9" y="79.6" class="st1" width="21.1" height="1.4"/>
		<path class="st1" d="M232.3,75.3C232.3,75.2,232.3,75.2,232.3,75.3l-0.1,0v0.1L232.3,75.3C232.3,75.4,232.3,75.3,232.3,75.3
			C232.3,75.3,232.3,75.3,232.3,75.3C232.3,75.3,232.3,75.3,232.3,75.3 M232.2,75.2C232.3,75.2,232.3,75.2,232.2,75.2
			c0.1,0,0.1,0,0.1,0.1c0,0,0,0,0,0.1c0,0,0,0,0,0c0,0,0,0,0.1,0c0,0,0,0,0,0v0c0,0,0,0,0,0c0,0,0,0,0,0l0,0h-0.1l0,0c0,0,0,0,0,0
			l0,0v0c0,0,0-0.1,0-0.1c0,0,0,0-0.1,0h0v0.1h-0.1v-0.3H232.2z M232.1,75.2c0,0-0.1,0.1-0.1,0.2c0,0.1,0,0.1,0.1,0.2
			c0,0,0.1,0.1,0.2,0.1c0.1,0,0.1,0,0.2-0.1c0,0,0.1-0.1,0.1-0.2c0-0.1,0-0.1-0.1-0.2c0,0-0.1-0.1-0.2-0.1
			C232.2,75.1,232.1,75.1,232.1,75.2 M232.4,75.6c-0.1,0.1-0.1,0.1-0.2,0.1c-0.1,0-0.1,0-0.2-0.1c-0.1-0.1-0.1-0.1-0.1-0.2
			c0-0.1,0-0.1,0.1-0.2c0.1-0.1,0.1-0.1,0.2-0.1c0.1,0,0.1,0,0.2,0.1c0.1,0.1,0.1,0.1,0.1,0.2C232.5,75.4,232.5,75.5,232.4,75.6"/>
	</g>
	<g>
		<path class="st1" d="M228.4,99c-0.3,0-0.5,0.2-0.5,0.5c0,0.3,0.2,0.5,0.5,0.5s0.5-0.2,0.5-0.5C228.9,99.2,228.7,99,228.4,99z"/>
		<path class="st1" d="M226,97c0-0.3-0.2-0.5-0.5-0.5c-0.3,0-0.5,0.2-0.5,0.5c0,0.3,0.2,0.5,0.5,0.5C225.8,97.5,226,97.3,226,97z"/>
		<path class="st1" d="M221.4,88.7c-5.5,0-9.9,4.4-9.9,9.9c0,5.5,4.4,9.9,9.9,9.9c5.5,0,9.9-4.4,9.9-9.9
			C231.3,93.1,226.9,88.7,221.4,88.7z M223.4,106.3h-3.9v-12l-1.4,0l0-1.9l1.9-1.7h3.4V106.3z M224.4,97c0-0.6,0.5-1.1,1.1-1.1
			c0.6,0,1.1,0.5,1.1,1.1c0,0.6-0.5,1.1-1.1,1.1C224.9,98.1,224.4,97.6,224.4,97z M224.8,100.6l3.5-4.7h0.8l-3.5,4.7H224.8z
			 M228.4,100.6c-0.6,0-1.1-0.5-1.1-1.1c0-0.6,0.5-1.1,1.1-1.1c0.6,0,1.1,0.5,1.1,1.1C229.5,100.1,229,100.6,228.4,100.6z"/>
		<polygon class="st1" points="208.6,109.9 211.9,109.9 211.9,110.9 209.8,110.9 209.8,111.6 211.7,111.6 211.7,112.5 209.8,112.5 
			209.8,113.9 208.6,113.9 		"/>
		<path class="st1" d="M212.3,111.9L212.3,111.9c0-1.2,0.9-2.1,2.2-2.1c1.3,0,2.2,0.9,2.2,2.1v0c0,1.2-0.9,2.1-2.2,2.1
			C213.2,114,212.3,113.1,212.3,111.9z M215.5,111.9L215.5,111.9c0-0.6-0.4-1.1-1-1.1c-0.6,0-1,0.5-1,1.1v0c0,0.6,0.4,1.1,1,1.1
			C215.1,113,215.5,112.5,215.5,111.9z"/>
		<path class="st1" d="M217.3,109.9h1.9c0.6,0,1,0.2,1.3,0.4c0.2,0.2,0.4,0.5,0.4,0.9v0c0,0.6-0.3,1-0.8,1.2l1,1.4h-1.3l-0.8-1.2h0
			h-0.5v1.2h-1.1V109.9z M219.1,111.8c0.4,0,0.6-0.2,0.6-0.5v0c0-0.3-0.2-0.5-0.6-0.5h-0.7v1H219.1z"/>
		<polygon class="st1" points="223.5,110.9 222.3,110.9 222.3,109.9 225.9,109.9 225.9,110.9 224.7,110.9 224.7,113.9 223.5,113.9 
					"/>
		<polygon class="st1" points="226.4,109.9 227.5,109.9 227.5,111.4 229,111.4 229,109.9 230.1,109.9 230.1,113.9 229,113.9 
			229,112.4 227.5,112.4 227.5,113.9 226.4,113.9 		"/>
		<polygon class="st1" points="230.8,109.9 234.1,109.9 234.1,110.8 232,110.8 232,111.4 233.9,111.4 233.9,112.3 232,112.3 
			232,113 234.1,113 234.1,113.9 230.8,113.9 		"/>
		<path class="st1" d="M208.6,114.7h1.9c1.1,0,1.8,0.6,1.8,1.5v0c0,1-0.8,1.6-1.9,1.6h-0.6v1.2h-1.2V114.7z M210.4,116.9
			c0.4,0,0.7-0.2,0.7-0.6v0c0-0.4-0.3-0.6-0.7-0.6h-0.6v1.2H210.4z"/>
		<polygon class="st1" points="212.8,114.7 214,114.7 214,118.1 216.1,118.1 216.1,119.1 212.8,119.1 		"/>
		<path class="st1" d="M218.2,114.7h1.2l1.9,4.4h-1.3l-0.3-0.8h-1.7l-0.3,0.8h-1.3L218.2,114.7z M219.2,117.4l-0.5-1.2l-0.5,1.2
			H219.2z"/>
		<polygon class="st1" points="221.6,114.7 222.7,114.7 224.5,117.1 224.5,114.7 225.7,114.7 225.7,119.1 224.7,119.1 222.8,116.7 
			222.8,119.1 221.6,119.1 		"/>
		<polygon class="st1" points="226.5,114.7 230,114.7 230,115.8 227.7,115.8 227.7,116.4 229.8,116.4 229.8,117.4 227.7,117.4 
			227.7,118.1 230.1,118.1 230.1,119.1 226.5,119.1 		"/>
		<polygon class="st1" points="231.7,115.8 230.4,115.8 230.4,114.7 234.3,114.7 234.3,115.8 232.9,115.8 232.9,119.1 231.7,119.1 
					"/>
		<g>
			<path class="st1" d="M211,122.1v-0.4h2.5v0.4H211z"/>
			<path class="st1" d="M216.3,122.8v-1.4l-0.6,0.9h0l-0.6-0.9v1.4h-0.5v-2.2h0.5l0.6,0.9l0.6-0.9h0.5v2.2H216.3z"/>
			<path class="st1" d="M217.3,122.8v-2.2h1.6v0.4h-1.2v0.4h1v0.4h-1v0.5h1.2v0.4H217.3z"/>
			<path class="st1" d="M221.1,122.8v-1.4l-0.6,0.9h0l-0.6-0.9v1.4h-0.5v-2.2h0.5l0.6,0.9l0.6-0.9h0.5v2.2H221.1z"/>
			<path class="st1" d="M223.2,122.8h-1v-2.2h1c0.4,0,0.7,0.2,0.7,0.6v0c0,0.2-0.1,0.4-0.3,0.5c0.3,0.1,0.4,0.2,0.4,0.5v0
				C224,122.6,223.7,122.8,223.2,122.8z M223.4,121.3c0-0.1-0.1-0.2-0.3-0.2h-0.5v0.5h0.4C223.3,121.5,223.4,121.4,223.4,121.3
				L223.4,121.3z M223.5,122.1c0-0.1-0.1-0.2-0.4-0.2h-0.6v0.5h0.6C223.4,122.4,223.5,122.3,223.5,122.1L223.5,122.1z"/>
			<path class="st1" d="M224.4,122.8v-2.2h1.6v0.4h-1.2v0.4h1v0.4h-1v0.5h1.2v0.4H224.4z"/>
			<path class="st1" d="M227.8,122.8l-0.5-0.7H227v0.7h-0.5v-2.2h1c0.5,0,0.8,0.3,0.8,0.7v0c0,0.4-0.2,0.6-0.5,0.7l0.5,0.8H227.8z
				 M227.8,121.4c0-0.2-0.1-0.3-0.4-0.3H227v0.6h0.5C227.7,121.7,227.8,121.6,227.8,121.4L227.8,121.4z"/>
			<path class="st1" d="M229.3,122.1v-0.4h2.5v0.4H229.3z"/>
		</g>
		<g>
			<path class="st1" d="M233.2,118.7L233.2,118.7c0-0.2,0.2-0.4,0.4-0.4c0.2,0,0.4,0.2,0.4,0.4v0c0,0.2-0.2,0.4-0.4,0.4
				C233.3,119.1,233.2,118.9,233.2,118.7z M233.8,118.7L233.8,118.7c0-0.2-0.1-0.3-0.3-0.3c-0.2,0-0.3,0.1-0.3,0.3v0
				c0,0.2,0.1,0.3,0.3,0.3C233.7,119.1,233.8,118.9,233.8,118.7z M233.4,118.6h0.2c0.1,0,0.2,0,0.2,0.1c0,0.1,0,0.1-0.1,0.1l0.1,0.1
				h-0.1l-0.1-0.1h0v0.1h-0.1V118.6z M233.5,118.7C233.6,118.7,233.6,118.7,233.5,118.7C233.6,118.7,233.6,118.6,233.5,118.7
				L233.5,118.7L233.5,118.7L233.5,118.7z"/>
		</g>
	</g>
</g>
<g>
	<g>
		<g>
			<path d="M29.7,57.1c0-0.6-0.3-0.9-0.8-0.9c-0.3,0-0.6,0.1-0.7,0.3c-0.1,0.1-0.1,0.2-0.1,0.5v1.3c0,0.6,0,0.7,0.3,0.7l0.2,0
				c0.1,0,0,0.2,0,0.2c-0.3,0-0.5,0-0.8,0c-0.3,0-0.5,0-0.8,0c-0.1,0-0.1-0.2,0-0.2l0.2,0c0.3-0.1,0.3-0.1,0.3-0.7v-1.2
				c0-0.6-0.3-0.9-0.8-0.9c-0.4,0-0.6,0.2-0.7,0.3c-0.1,0.1-0.1,0.2-0.1,0.5v1.3c0,0.6,0,0.7,0.3,0.7l0.2,0c0.1,0,0,0.2,0,0.2
				c-0.2,0-0.5,0-0.8,0c-0.3,0-0.6,0-0.8,0c-0.1,0-0.1-0.2,0-0.2l0.2,0c0.3,0,0.3-0.1,0.3-0.7v-1.5c0-0.3,0-0.4-0.2-0.5l-0.1-0.1
				c0,0,0-0.1,0-0.2c0.2-0.1,0.7-0.3,0.9-0.4c0,0,0.1,0,0.1,0.1c0,0.2,0,0.3,0,0.4c0,0.1,0,0.1,0.1,0.1c0.3-0.2,0.7-0.4,1.1-0.4
				c0.4,0,0.7,0.2,0.9,0.5c0.1,0,0.1,0,0.2-0.1c0.3-0.2,0.8-0.4,1.2-0.4c0.7,0,1,0.5,1,1.1v1.5c0,0.6,0,0.7,0.3,0.7l0.2,0
				c0.1,0,0,0.2,0,0.2c-0.3,0-0.5,0-0.8,0c-0.3,0-0.5,0-0.8,0c-0.1,0-0.1-0.2,0-0.2l0.2,0c0.3-0.1,0.3-0.1,0.3-0.7V57.1z"/>
			<path d="M32.2,57.1c-0.2,0-0.2,0-0.2,0.2c0,0.9,0.5,1.6,1.4,1.6c0.3,0,0.5-0.1,0.8-0.4c0.1,0,0.1,0,0.2,0.1
				c-0.3,0.6-0.9,0.8-1.3,0.8c-0.6,0-1-0.2-1.2-0.6c-0.3-0.3-0.4-0.7-0.4-1.1c0-1.1,0.7-1.9,1.7-1.9c0.7,0,1.2,0.5,1.2,1
				c0,0.1,0,0.2,0,0.2c0,0.1-0.1,0.1-0.5,0.1H32.2z M32.7,56.8c0.6,0,0.8,0,0.9-0.1c0,0,0.1-0.1,0.1-0.2c0-0.2-0.2-0.5-0.7-0.5
				c-0.5,0-0.9,0.5-0.9,0.7c0,0,0,0,0.1,0H32.7z"/>
			<path d="M35.3,56.8c0-0.3,0-0.4-0.2-0.5L35,56.2c0,0,0-0.1,0-0.2c0.2-0.1,0.6-0.3,0.9-0.4c0,0,0.1,0,0.1,0.1v0.5c0,0,0,0.1,0,0.1
				c0.3-0.2,0.6-0.5,0.9-0.5c0.2,0,0.4,0.1,0.4,0.3c0,0.3-0.2,0.4-0.4,0.4c-0.1,0-0.1,0-0.2-0.1c-0.1-0.1-0.3-0.1-0.4-0.1
				c-0.1,0-0.2,0.1-0.3,0.2C36,56.6,36,56.9,36,57.1v1.2c0,0.6,0,0.7,0.3,0.7l0.3,0c0.1,0,0,0.2,0,0.2c-0.4,0-0.6,0-0.9,0
				c-0.3,0-0.6,0-0.8,0c-0.1,0-0.1-0.2,0-0.2l0.2,0c0.3-0.1,0.3-0.1,0.3-0.7V56.8z"/>
			<path d="M38.2,56.8c0-0.3,0-0.4-0.2-0.5l-0.1-0.1c0,0,0-0.1,0-0.2c0.2-0.1,0.6-0.3,0.9-0.4c0,0,0.1,0,0.1,0.1v0.5
				c0,0,0,0.1,0,0.1c0.3-0.2,0.6-0.5,0.9-0.5c0.2,0,0.4,0.1,0.4,0.3c0,0.3-0.2,0.4-0.4,0.4c-0.1,0-0.1,0-0.2-0.1
				c-0.1-0.1-0.3-0.1-0.4-0.1c-0.1,0-0.2,0.1-0.3,0.2c-0.1,0.1-0.1,0.4-0.1,0.7v1.2c0,0.6,0,0.7,0.3,0.7l0.3,0c0.1,0,0,0.2,0,0.2
				c-0.4,0-0.6,0-0.9,0c-0.3,0-0.6,0-0.8,0c-0.1,0-0.1-0.2,0-0.2l0.2,0c0.3-0.1,0.3-0.1,0.3-0.7V56.8z"/>
			<path d="M40.4,61c0-0.2,0.2-0.3,0.3-0.3h0.2c0.1,0,0.2-0.1,0.3-0.2c0.2-0.4,0.4-0.7,0.5-0.9c0-0.1,0.1-0.2,0.1-0.4
				c0-0.2,0-0.3-0.1-0.6l-0.7-1.8c-0.1-0.4-0.2-0.6-0.5-0.7l-0.2,0c-0.1,0,0-0.2,0-0.2c0.3,0,0.5,0,0.8,0c0.2,0,0.5,0,0.7,0
				c0.1,0,0.1,0.2,0,0.2l-0.2,0c-0.1,0-0.2,0.1-0.2,0.1c0,0.1,0.2,0.7,0.2,0.8l0.3,0.8c0.1,0.1,0.2,0.6,0.2,0.6c0,0,0.2-0.3,0.3-0.6
				l0.3-0.7c0.2-0.4,0.3-0.8,0.3-0.9c0-0.1-0.1-0.1-0.2-0.1l-0.3,0c-0.1,0,0-0.2,0-0.2c0.3,0,0.5,0,0.8,0c0.2,0,0.4,0,0.7,0
				c0.1,0,0.1,0.2,0,0.2l-0.1,0c-0.3,0.1-0.4,0.3-0.7,0.9l-0.5,1c-0.3,0.6-1,2.1-1.4,3c-0.1,0.3-0.3,0.4-0.5,0.4
				C40.5,61.4,40.4,61.2,40.4,61"/>
		</g>
		<g>
			<path d="M46.3,61c0-0.2,0.2-0.3,0.3-0.3h0.2c0.1,0,0.2-0.1,0.3-0.2c0.2-0.4,0.4-0.7,0.5-0.9c0-0.1,0.1-0.2,0.1-0.4
				c0-0.2,0-0.3-0.1-0.6l-0.7-1.8c-0.1-0.4-0.2-0.6-0.5-0.7l-0.2,0c-0.1,0,0-0.2,0-0.2c0.3,0,0.5,0,0.8,0c0.2,0,0.5,0,0.7,0
				c0.1,0,0.1,0.2,0,0.2l-0.2,0c-0.1,0-0.2,0.1-0.2,0.1c0,0.1,0.2,0.7,0.2,0.8l0.3,0.8c0.1,0.1,0.2,0.6,0.2,0.6c0,0,0.2-0.3,0.3-0.6
				l0.3-0.7c0.2-0.4,0.3-0.8,0.3-0.9c0-0.1-0.1-0.1-0.2-0.1l-0.3,0c-0.1,0,0-0.2,0-0.2c0.3,0,0.5,0,0.8,0c0.2,0,0.4,0,0.6,0
				c0.1,0,0.1,0.2,0,0.2l-0.1,0c-0.3,0.1-0.4,0.3-0.7,0.9l-0.5,1c-0.3,0.6-1,2.1-1.4,3c-0.1,0.3-0.4,0.4-0.5,0.4
				C46.4,61.4,46.3,61.2,46.3,61"/>
			<path d="M50.9,57.1c-0.2,0-0.2,0-0.2,0.2c0,0.9,0.5,1.6,1.4,1.6c0.3,0,0.5-0.1,0.8-0.4c0.1,0,0.1,0,0.2,0.1
				c-0.3,0.6-0.9,0.8-1.3,0.8c-0.6,0-1-0.2-1.2-0.6c-0.3-0.3-0.4-0.7-0.4-1.1c0-1.1,0.7-1.9,1.7-1.9c0.7,0,1.2,0.5,1.2,1
				c0,0.1,0,0.2,0,0.2c0,0.1-0.1,0.1-0.5,0.1H50.9z M51.5,56.8c0.6,0,0.8,0,0.9-0.1c0,0,0.1-0.1,0.1-0.2c0-0.2-0.2-0.5-0.7-0.5
				c-0.5,0-0.9,0.5-0.9,0.7c0,0,0,0,0.1,0H51.5z"/>
			<path d="M55.2,57.5c0.1,0,0.1-0.1,0.1-0.2l0-0.4c0-0.3-0.1-0.7-0.6-0.7c-0.2,0-0.5,0.1-0.5,0.4c0,0.1,0,0.2-0.1,0.3
				C54,56.9,53.8,57,53.7,57c-0.1,0-0.1,0-0.1-0.1c0-0.4,1-1.1,1.6-1.1c0.6,0,0.9,0.4,0.9,1L56,58.3c0,0.4,0.1,0.7,0.4,0.7
				c0.1,0,0.2,0,0.2-0.1c0,0,0.1-0.1,0.1-0.1c0,0,0.1,0.1,0.1,0.1c0,0-0.3,0.4-0.7,0.4c-0.2,0-0.4-0.1-0.6-0.3
				c0-0.1-0.1-0.1-0.1-0.1c-0.1,0-0.2,0.1-0.3,0.2c-0.2,0.1-0.4,0.2-0.6,0.2c-0.2,0-0.5-0.1-0.6-0.2c-0.2-0.1-0.3-0.4-0.3-0.6
				c0-0.3,0.2-0.5,0.7-0.7L55.2,57.5z M54.7,59c0.2,0,0.4-0.1,0.5-0.2c0.1-0.1,0.1-0.2,0.1-0.4l0-0.5c0-0.1,0-0.1-0.1-0.1
				c-0.1,0-0.2,0-0.4,0.1c-0.5,0.2-0.8,0.3-0.8,0.6C54.2,58.6,54.3,59,54.7,59"/>
			<path d="M57.5,56.8c0-0.3,0-0.4-0.2-0.5l-0.1-0.1c0,0,0-0.1,0-0.2c0.2-0.1,0.6-0.3,0.9-0.4c0,0,0.1,0,0.1,0.1v0.5
				c0,0,0,0.1,0,0.1c0.3-0.2,0.6-0.5,0.9-0.5c0.2,0,0.4,0.1,0.4,0.3c0,0.3-0.2,0.4-0.4,0.4c-0.1,0-0.1,0-0.2-0.1
				c-0.1-0.1-0.3-0.1-0.4-0.1c-0.1,0-0.2,0.1-0.3,0.2c-0.1,0.1-0.1,0.4-0.1,0.7v1.2c0,0.6,0,0.7,0.3,0.7l0.3,0c0.1,0,0,0.2,0,0.2
				c-0.4,0-0.6,0-0.9,0c-0.3,0-0.6,0-0.8,0c-0.1,0-0.1-0.2,0-0.2l0.2,0c0.3-0.1,0.3-0.1,0.3-0.7V56.8z"/>
		</g>
	</g>
	<g>
		<g>
			<path d="M26.9,67.2c0.1,0.2,0.1,0.5,0.1,0.7c0,0.1-0.2,0.1-0.2,0c-0.1-0.4-0.4-0.6-0.8-0.6c-0.3,0-0.5,0.2-0.5,0.5
				c0,0.4,0.4,0.5,0.7,0.7c0.5,0.3,0.9,0.5,0.9,1.2c0,0.6-0.6,1-1.2,1c-0.4,0-0.7-0.1-0.9-0.3c-0.1-0.2-0.1-0.6-0.1-0.9
				c0-0.1,0.2-0.1,0.2,0c0.1,0.5,0.4,0.9,0.9,0.9c0.3,0,0.6-0.2,0.6-0.5c0-0.4-0.3-0.6-0.7-0.8c-0.5-0.3-0.8-0.6-0.8-1.1
				c0-0.6,0.5-1,1.2-1C26.5,67,26.8,67.1,26.9,67.2"/>
			<path d="M31.1,68.8c0,1.1-0.7,1.8-1.8,1.8c-1,0-1.8-0.7-1.8-1.8c0-1.1,0.8-1.9,1.8-1.9C30.4,67,31.1,67.7,31.1,68.8 M29.3,67.3
				c-0.6,0-1,0.5-1,1.5c0,0.8,0.4,1.6,1.1,1.6c0.8,0,1-0.8,1-1.4C30.4,68.2,30.1,67.3,29.3,67.3"/>
			<path d="M34.6,67.2c0.1,0.1,0.1,0.2,0.1,0.3c0,0.2-0.1,0.3-0.2,0.3c0,0-0.1,0-0.1-0.1c-0.2-0.2-0.5-0.5-0.9-0.5
				c-0.6,0-1.2,0.5-1.2,1.4c0,0.7,0.5,1.5,1.4,1.5c0.5,0,0.8-0.2,1-0.5c0.1,0,0.1,0,0.2,0.1c-0.3,0.6-0.9,0.9-1.4,0.9
				c-0.5,0-0.9-0.1-1.2-0.4c-0.3-0.3-0.5-0.7-0.5-1.3c0-0.9,0.7-1.9,2.1-1.9C34,67,34.4,67.1,34.6,67.2"/>
			<path d="M35.7,68.1c0-0.3,0-0.4-0.2-0.5l-0.1-0.1c0,0,0-0.1,0-0.2c0.2-0.1,0.7-0.3,0.9-0.4c0,0,0.1,0,0.1,0.1c0,0.3,0,0.7,0,1.1
				v1.5c0,0.6,0,0.7,0.3,0.7l0.2,0c0.1,0,0,0.2,0,0.2c-0.3,0-0.5,0-0.8,0c-0.3,0-0.6,0-0.8,0c-0.1,0-0.1-0.2,0-0.2l0.2,0
				c0.3,0,0.3-0.1,0.3-0.7V68.1z M36.4,65.6c0,0.3-0.2,0.4-0.5,0.4c-0.3,0-0.4-0.2-0.4-0.4c0-0.3,0.2-0.5,0.5-0.5
				C36.2,65.2,36.4,65.4,36.4,65.6"/>
			<path d="M39.1,68.7c0.1,0,0.1-0.1,0.1-0.2l0-0.4c0-0.3-0.1-0.7-0.6-0.7c-0.2,0-0.5,0.1-0.5,0.4c0,0.1,0,0.2-0.1,0.3
				c-0.1,0.1-0.4,0.2-0.5,0.2c-0.1,0-0.1,0-0.1-0.1c0-0.4,1-1.1,1.6-1.1c0.6,0,0.9,0.4,0.9,1l-0.1,1.5c0,0.4,0.1,0.7,0.4,0.7
				c0.1,0,0.2,0,0.2-0.1c0,0,0.1-0.1,0.1-0.1c0,0,0.1,0.1,0.1,0.1c0,0-0.3,0.4-0.7,0.4c-0.2,0-0.4-0.1-0.6-0.3
				c0-0.1-0.1-0.1-0.1-0.1c-0.1,0-0.2,0.1-0.3,0.2c-0.2,0.1-0.4,0.2-0.6,0.2c-0.2,0-0.5-0.1-0.6-0.2c-0.2-0.1-0.3-0.4-0.3-0.6
				c0-0.3,0.2-0.5,0.7-0.7L39.1,68.7z M38.6,70.2c0.2,0,0.4-0.1,0.5-0.2c0.1-0.1,0.1-0.2,0.1-0.4l0-0.5c0-0.1,0-0.1-0.1-0.1
				c0,0-0.2,0-0.3,0.1c-0.5,0.2-0.8,0.3-0.8,0.6C38,69.9,38.1,70.2,38.6,70.2"/>
			<path d="M41.9,69.5c0,0.6,0,0.7,0.3,0.7l0.2,0c0.1,0,0,0.2,0,0.2c-0.3,0-0.5,0-0.8,0c-0.3,0-0.6,0-0.8,0c-0.1,0-0.1-0.2,0-0.2
				l0.2,0c0.3,0,0.3-0.1,0.3-0.7v-3.9c0-0.5,0-0.6-0.3-0.7l-0.1-0.1c0,0,0-0.1,0-0.2c0.2-0.1,0.6-0.2,0.9-0.4c0,0,0.1,0,0.1,0.1
				c0,0.3,0,0.7,0,1.1V69.5z"/>
		</g>
		<g>
			<path d="M47.9,67.2c0.1,0.1,0.1,0.2,0.1,0.3c0,0.2-0.1,0.3-0.2,0.3c0,0-0.1,0-0.1-0.1c-0.2-0.2-0.5-0.5-0.9-0.5
				c-0.6,0-1.2,0.5-1.2,1.4c0,0.7,0.5,1.5,1.4,1.5c0.5,0,0.8-0.2,0.9-0.5c0.1,0,0.1,0,0.2,0.1c-0.3,0.6-0.9,0.9-1.4,0.9
				c-0.5,0-0.9-0.1-1.2-0.4c-0.3-0.3-0.5-0.7-0.5-1.3c0-0.9,0.6-1.9,2.1-1.9C47.4,67,47.7,67.1,47.9,67.2"/>
			<path d="M52.1,68.8c0,1.1-0.7,1.8-1.8,1.8c-1,0-1.8-0.7-1.8-1.8c0-1.1,0.8-1.9,1.8-1.9C51.3,67,52.1,67.7,52.1,68.8 M50.2,67.3
				c-0.6,0-1,0.5-1,1.5c0,0.8,0.4,1.6,1.1,1.6c0.8,0,1-0.8,1-1.4C51.3,68.2,51.1,67.3,50.2,67.3"/>
			<path d="M57.8,68.3c0-0.6-0.3-0.9-0.8-0.9c-0.3,0-0.6,0.1-0.7,0.3c-0.1,0.1-0.1,0.2-0.1,0.5v1.3c0,0.6,0,0.7,0.3,0.7l0.2,0
				c0.1,0,0,0.2,0,0.2c-0.3,0-0.5,0-0.8,0c-0.3,0-0.5,0-0.8,0c-0.1,0-0.1-0.2,0-0.2l0.2,0c0.3-0.1,0.3-0.1,0.3-0.7v-1.2
				c0-0.6-0.3-0.9-0.8-0.9c-0.4,0-0.6,0.2-0.7,0.3c-0.1,0.1-0.1,0.2-0.1,0.5v1.3c0,0.6,0,0.7,0.3,0.7l0.2,0c0.1,0,0,0.2,0,0.2
				c-0.2,0-0.5,0-0.8,0c-0.3,0-0.6,0-0.8,0c-0.1,0-0.1-0.2,0-0.2l0.2,0c0.3,0,0.3-0.1,0.3-0.7v-1.5c0-0.3,0-0.4-0.2-0.5l-0.1-0.1
				c0,0,0-0.1,0-0.2c0.2-0.1,0.7-0.3,0.9-0.4c0,0,0.1,0,0.1,0.1c0,0.2,0,0.3,0,0.4c0,0.1,0,0.1,0.1,0.1c0.3-0.2,0.7-0.4,1.1-0.4
				c0.4,0,0.7,0.2,0.9,0.5c0.1,0,0.1,0,0.2-0.1c0.3-0.2,0.8-0.4,1.2-0.4c0.7,0,1,0.5,1,1.1v1.5c0,0.6,0,0.7,0.3,0.7l0.2,0
				c0.1,0,0,0.2,0,0.2c-0.3,0-0.5,0-0.8,0c-0.3,0-0.5,0-0.8,0c-0.1,0-0.1-0.2,0-0.2l0.2,0c0.3-0.1,0.3-0.1,0.3-0.7V68.3z"/>
			<path d="M59.8,68.1c0-0.3,0-0.4-0.2-0.5l-0.1-0.1c0,0,0-0.1,0-0.2c0.2-0.1,0.6-0.3,0.8-0.5c0.1,0,0.1,0,0.1,0.1
				c0,0.2,0,0.3,0,0.4c0,0.1,0,0.1,0.1,0.1c0.1-0.1,0.6-0.4,1.2-0.4c0.9,0,1.4,0.7,1.4,1.6c0,1.2-0.9,2-2.1,2c-0.2,0-0.4,0-0.5,0
				c-0.1,0-0.1,0.1-0.1,0.2v0.9c0,0.6,0,0.7,0.3,0.7l0.3,0c0.1,0,0,0.2,0,0.2c-0.4,0-0.7,0-1,0c-0.3,0-0.6,0-0.8,0
				c-0.1,0-0.1-0.2,0-0.2l0.2,0c0.3,0,0.3-0.1,0.3-0.7V68.1z M60.5,69.6c0,0.3,0.1,0.4,0.3,0.5c0.2,0.1,0.4,0.2,0.6,0.2
				c0.7,0,1.1-0.7,1.1-1.5c0-0.7-0.4-1.4-1.2-1.4c-0.4,0-0.6,0.1-0.7,0.2c-0.1,0.1-0.1,0.2-0.1,0.5V69.6z"/>
			<path d="M65.5,68.7c0.1,0,0.1-0.1,0.1-0.2l0-0.4c0-0.3-0.1-0.7-0.6-0.7c-0.2,0-0.5,0.1-0.5,0.4c0,0.1,0,0.2-0.1,0.3
				c-0.1,0.1-0.4,0.2-0.5,0.2c-0.1,0-0.1,0-0.1-0.1c0-0.4,1-1.1,1.6-1.1c0.6,0,0.9,0.4,0.9,1l-0.1,1.5c0,0.4,0.1,0.7,0.4,0.7
				c0.1,0,0.2,0,0.2-0.1c0,0,0.1-0.1,0.1-0.1c0,0,0.1,0.1,0.1,0.1c0,0-0.3,0.4-0.7,0.4c-0.2,0-0.4-0.1-0.6-0.3
				c0-0.1-0.1-0.1-0.1-0.1c-0.1,0-0.2,0.1-0.3,0.2c-0.2,0.1-0.4,0.2-0.6,0.2c-0.2,0-0.5-0.1-0.6-0.2c-0.2-0.1-0.3-0.4-0.3-0.6
				c0-0.3,0.2-0.5,0.7-0.7L65.5,68.7z M65,70.2c0.2,0,0.4-0.1,0.5-0.2c0.1-0.1,0.1-0.2,0.1-0.4l0-0.5c0-0.1,0-0.1-0.1-0.1
				c-0.1,0-0.2,0-0.4,0.1c-0.5,0.2-0.8,0.3-0.8,0.6C64.4,69.9,64.5,70.2,65,70.2"/>
			<path d="M67.8,68.1c0-0.3,0-0.4-0.2-0.5l-0.1-0.1c0,0,0-0.1,0-0.2c0.2-0.1,0.7-0.3,0.9-0.4c0,0,0.1,0,0.1,0.1c0,0.2,0,0.3,0,0.4
				c0,0,0,0.1,0.1,0.1c0.4-0.2,0.8-0.4,1.2-0.4c0.7,0,1,0.5,1,1.1v1.5c0,0.6,0,0.7,0.3,0.7l0.2,0c0.1,0,0,0.2,0,0.2
				c-0.3,0-0.5,0-0.8,0c-0.3,0-0.6,0-0.8,0c-0.1,0-0.1-0.2,0-0.2l0.2,0c0.3-0.1,0.3-0.1,0.3-0.7v-1.3c0-0.5-0.2-0.8-0.8-0.8
				c-0.3,0-0.6,0.1-0.7,0.3c-0.1,0.1-0.1,0.3-0.1,0.5v1.3c0,0.6,0,0.7,0.3,0.7l0.2,0c0.1,0,0,0.2,0,0.2c-0.2,0-0.5,0-0.8,0
				c-0.3,0-0.6,0-0.8,0c-0.1,0-0.1-0.2,0-0.2l0.2,0c0.3,0,0.3-0.1,0.3-0.7V68.1z"/>
			<path d="M71.6,72.3c0-0.2,0.2-0.3,0.3-0.3h0.2c0.1,0,0.2-0.1,0.3-0.2c0.2-0.4,0.4-0.7,0.5-0.9c0-0.1,0.1-0.2,0.1-0.4
				c0-0.2,0-0.3-0.1-0.6L72.2,68c-0.1-0.4-0.2-0.6-0.5-0.7l-0.2,0c-0.1,0,0-0.2,0-0.2c0.3,0,0.5,0,0.8,0c0.2,0,0.5,0,0.7,0
				c0.1,0,0.1,0.2,0,0.2l-0.2,0c-0.1,0-0.2,0.1-0.2,0.1c0,0.1,0.2,0.7,0.2,0.8l0.3,0.8c0.1,0.1,0.2,0.6,0.2,0.6c0,0,0.2-0.3,0.3-0.6
				l0.3-0.7c0.2-0.4,0.3-0.8,0.3-0.9c0-0.1-0.1-0.1-0.2-0.1l-0.3,0c-0.1,0-0.1-0.2,0-0.2c0.3,0,0.5,0,0.8,0c0.2,0,0.4,0,0.6,0
				c0.1,0,0.1,0.2,0,0.2l-0.1,0c-0.3,0.1-0.4,0.3-0.7,0.9l-0.5,1c-0.3,0.6-1,2.1-1.4,3c-0.1,0.3-0.4,0.4-0.5,0.4
				C71.8,72.6,71.6,72.5,71.6,72.3"/>
		</g>
	</g>
</g>
<g>
	<path d="M28.2,110.3c-0.6-0.4-1.4-1.3-1.7-2.1c-0.2,0.8-0.9,1.7-1.7,2.3l-0.3-0.3c0.9-0.5,1.8-1.8,1.8-2.9v-1.2h0.4v1.2
		c0,1.1,0.9,2.3,1.8,2.7L28.2,110.3z M29.6,108.5v3.5h-0.4v-6.5h0.4v2.7h1.1v0.3H29.6z"/>
	<path d="M33.2,109.7v0.7c0.8-0.1,1.7-0.1,2.1-0.2l0,0.4c-0.4,0.1-1.6,0.2-2.4,0.2c-0.7,0-1.3,0.1-1.9,0.1l-0.1-0.4
		c0.4,0,1.1,0,1.9,0v-0.7c-0.8-0.1-1.3-0.5-1.3-1.1c0-0.7,0.6-1.1,1.5-1.1c0.9,0,1.5,0.4,1.5,1.1C34.5,109.2,34,109.6,33.2,109.7z
		 M31.1,107.2v-0.4H35v0.4H31.1z M33,107.9c-0.6,0-1.1,0.3-1.1,0.7c0,0.4,0.5,0.7,1.1,0.7s1.1-0.3,1.1-0.7
		C34.1,108.2,33.6,107.9,33,107.9z M32.1,106.2v-0.4H34v0.4H32.1z M35.7,112v-6.5h0.4v6.5H35.7z"/>
	<path d="M37.2,106.9v-0.3h3.6v0.3H37.2z M39,109.4c-0.8,0-1.4-0.4-1.4-1.1s0.6-1.1,1.4-1.1c0.8,0,1.4,0.4,1.4,1.1
		C40.4,109,39.8,109.4,39,109.4z M39,107.6c-0.6,0-1,0.3-1,0.7c0,0.5,0.5,0.7,1,0.7c0.6,0,1-0.3,1-0.7C40,107.9,39.6,107.6,39,107.6
		z M38.1,106v-0.3h1.8v0.3H38.1z M42,112v-1.6h-3.9V110h4.3v2H42z M40.8,107.1H42v-1.7h0.4v4.2H42v-1h-1.2v-0.3H42v-0.9h-1.2V107.1z
		"/>
	<path d="M46.9,109.1c-0.7-0.3-1.3-1-1.6-1.7c-0.2,0.7-0.9,1.4-1.6,1.9l-0.3-0.3c0.9-0.5,1.7-1.3,1.7-2.4v-0.8h0.4v0.8
		c0,1.1,0.9,1.9,1.6,2.2L46.9,109.1z M44.6,111.7v-2h0.4v1.6h3.9v0.4H44.6z M48.3,110.2v-4.7h0.4v4.7H48.3z"/>
	<path d="M54.7,106c0,1.8-1.1,3-2.8,3.5l-0.2-0.3c1.2-0.4,1.9-1,2.2-1.7l-2.2,0.2l-0.1-0.4l2.5-0.2c0.1-0.3,0.2-0.5,0.2-0.8h-2.4
		V106H54.7z M52.5,111.8v-2.1h0.4v1.7h4v0.4H52.5z M54.7,107.9v-0.3h1.6v-2.1h0.4v4.7h-0.4v-2.3H54.7z"/>
	<path d="M61.1,108.6c-0.6-0.3-1.3-0.9-1.6-1.5c-0.2,0.7-0.8,1.3-1.6,1.7l-0.3-0.3c0.9-0.4,1.7-1.2,1.7-2.2v-0.5h0.4v0.5
		c0,1.1,0.9,1.8,1.6,2.1L61.1,108.6z M58.8,111.9v-1.6h3.8v-0.8h-3.8v-0.4H63v1.5h-3.8v0.9h4v0.3H58.8z M61.1,107.2v-0.4h1.5v-1.4
		h0.4v3.4h-0.4v-1.7H61.1z"/>
	<path d="M68,108.8c-0.8,0.1-1.9,0.2-3.1,0.2h-0.6V106h3v0.4h-2.6v0.9h2.5v0.4h-2.5l0,1.1H65c0.9,0,2.1,0,2.9-0.2L68,108.8z
		 M67.1,112c-1.3,0-2.2-0.5-2.2-1.2c0-0.7,0.8-1.2,2.2-1.2c1.3,0,2.2,0.5,2.2,1.2C69.3,111.5,68.5,112,67.1,112z M67.1,110
		c-1.1,0-1.7,0.3-1.7,0.8c0,0.5,0.7,0.8,1.7,0.8c1.1,0,1.8-0.3,1.8-0.8C68.9,110.3,68.2,110,67.1,110z M69.2,109.5h-0.4v-4h0.4
		V109.5z"/>
	<path d="M72.5,108.3h0.6v0.6h-0.6V108.3z"/>
	<path d="M77.4,108.8c-0.9,0-1.5-0.6-1.5-1.5s0.6-1.5,1.5-1.5c0.9,0,1.5,0.6,1.5,1.5S78.2,108.8,77.4,108.8z M77.4,106.2
		c-0.7,0-1.1,0.5-1.1,1.1c0,0.7,0.4,1.1,1.1,1.1c0.7,0,1.1-0.5,1.1-1.1C78.4,106.7,78,106.2,77.4,106.2z M80.8,112v-2h-3.9v-0.4h4.3
		v2.3H80.8z M80.8,109.3v-1.8h-1v1.7h-0.4v-3.7h0.4v1.6h1v-1.7h0.4v3.8H80.8z"/>
	<path d="M85,108.6c-0.5-0.3-1.1-0.8-1.3-1.4c-0.2,0.6-0.7,1.2-1.3,1.5l-0.3-0.3c0.7-0.3,1.4-1.1,1.4-2v-0.7h0.4v0.7
		c0,0.9,0.8,1.5,1.4,1.8L85,108.6z M83.3,111.9v-1.5h3.8v-0.8h-3.8v-0.3h4.2v1.4h-3.8v0.8h4.1v0.3H83.3z M85.9,108.8v-1.6h-1.1v-0.4
		h1.1v-1.3h0.4v3.3H85.9z M87.1,108.9v-3.5h0.4v3.5H87.1z"/>
	<path d="M92,110.1c-0.7,0.1-1.6,0.2-2.7,0.2c-0.2,0-0.4,0-0.7,0v-2.4H91v-1.5h-2.5v-0.4h2.9v2.2h-2.5v1.7c0.9,0,2.2-0.1,3-0.2
		L92,110.1z M93.1,112v-3.6h-1.3v-0.3h1.3v-2.6h0.4v6.5H93.1z"/>
	<path d="M97.6,110.1c-0.7,0.1-1.2,0.2-2.2,0.2h-0.6V108h1.9v-1.4h-1.9v-0.4h2.3v2.1h-1.9v1.6c0.5,0,1.5,0,2.3-0.2L97.6,110.1z
		 M98.4,111.6v-3.2h-1V108h1v-2.4h0.4v6H98.4z M99.6,112v-6.5h0.4v6.5H99.6z"/>
	<path d="M102.7,106c0.9,0,1.6,0.9,1.6,2.3c0,1.4-0.6,2.3-1.6,2.3c-0.9,0-1.6-0.9-1.6-2.3S101.7,106,102.7,106z M102.7,106.3
		c-0.7,0-1.2,0.8-1.2,1.9c0,1.1,0.5,1.9,1.2,1.9c0.7,0,1.2-0.8,1.2-1.9C103.8,107.2,103.4,106.3,102.7,106.3z M105.6,112v-6.5h0.4
		v6.5H105.6z"/>
	<path d="M111.1,108.8c-0.8,0.1-1.9,0.2-3.1,0.2h-0.6V106h3v0.4h-2.6v0.9h2.5v0.4h-2.5l0,1.1h0.4c0.9,0,2.1,0,2.9-0.2L111.1,108.8z
		 M110.2,112c-1.3,0-2.2-0.5-2.2-1.2c0-0.7,0.8-1.2,2.2-1.2c1.3,0,2.2,0.5,2.2,1.2C112.4,111.5,111.6,112,110.2,112z M110.2,110
		c-1.1,0-1.7,0.3-1.7,0.8c0,0.5,0.7,0.8,1.7,0.8c1.1,0,1.8-0.3,1.8-0.8C112,110.3,111.3,110,110.2,110z M112.3,109.5h-0.4v-4h0.4
		V109.5z"/>
	<path d="M115.6,108.3h0.6v0.6h-0.6V108.3z"/>
	<path d="M122.3,107.3c0,0.9-0.8,1.5-1.6,1.5c-0.9,0-1.6-0.6-1.6-1.5c0-0.9,0.8-1.5,1.6-1.5C121.6,105.8,122.3,106.4,122.3,107.3z
		 M119.5,107.3c0,0.7,0.6,1.2,1.2,1.2c0.7,0,1.2-0.5,1.2-1.1c0-0.7-0.5-1.2-1.2-1.2C120,106.2,119.5,106.7,119.5,107.3z M120,111.9
		v-2.3h4.2v2.3H120z M123.8,109.9h-3.4v1.6h3.4V109.9z M123.8,109.2v-3.8h0.4v3.8H123.8z"/>
	<path d="M128.5,108.7c-0.4,0.1-0.9,0.1-1.5,0.1c-0.6,0-1.3,0.1-1.8,0.1l-0.1-0.4c0.2,0,0.5,0,0.8,0l-0.2-1.8l0.4-0.1l0.2,1.9l0.6,0
		c0.1,0,0.2,0,0.3,0c0.1-0.6,0.1-1.2,0.2-1.8c0.1,0,0.3,0,0.4,0.1l-0.2,1.8c0.4,0,0.7-0.1,0.9-0.1L128.5,108.7z M125.3,106.4V106h3
		v0.4H125.3z M130.6,109.7v2.3h-0.4V110h-3.9v-0.4H130.6z M130.2,109.3v-1.8h-1v1.7h-0.4v-3.7h0.4v1.6h1v-1.7h0.4v3.9H130.2z"/>
	<path d="M131.4,111.1v-0.4h5.9v0.4H131.4z M132.6,107.9v1.2h3.9v0.4h-4.3v-3.3h4.3v0.4h-3.9v1.1h3.7v0.3H132.6z"/>
	<path d="M140.4,111.8v-2.1h-2.7v-0.4h5.9v0.4h-2.7v2.1H140.4z M138.8,107.4v0.9h3.9v0.4h-4.3v-2.8h4.3v0.4h-3.9v0.9h3.7v0.3H138.8z
		"/>
	<path d="M147.4,110.4c-0.6-0.4-1.4-1.2-1.7-2.1c-0.3,0.9-0.9,1.6-1.7,2.3l-0.3-0.3c0.9-0.6,1.8-1.8,1.8-2.9v-0.9H144v-0.4h3.5v0.4
		h-1.5v0.9c0,1.1,0.9,2.2,1.7,2.7L147.4,110.4z M148.8,108.5v3.5h-0.4v-6.5h0.4v2.7h1.1v0.4H148.8z"/>
</g>
<g>
	<path d="M28.1,118c-0.1,0.9-0.7,1.5-1.6,1.5c-1.1,0-1.8-0.9-1.8-2s0.6-2,1.8-2c0.7,0,1.4,0.4,1.5,1.3h-0.4c-0.1-0.6-0.6-1-1.2-1
		c-1,0-1.4,0.9-1.4,1.7c0,0.9,0.4,1.7,1.4,1.7c0.7,0,1.1-0.5,1.2-1.2H28.1z"/>
	<path d="M29.8,119.6c-0.8,0-1.3-0.6-1.3-1.5s0.5-1.5,1.3-1.5c0.8,0,1.3,0.6,1.3,1.5S30.6,119.6,29.8,119.6z M29.8,116.9
		c-0.6,0-1,0.5-1,1.2c0,0.7,0.4,1.2,1,1.2c0.6,0,1-0.5,1-1.2C30.7,117.4,30.4,116.9,29.8,116.9z"/>
	<path d="M33.8,119.5h-0.3v-1.8c0-0.5-0.2-0.9-0.7-0.9c-0.5,0-0.9,0.4-0.9,1v1.7h-0.3v-2.8h0.3v0.5c0.1-0.3,0.5-0.6,0.9-0.6
		c0.7,0,1,0.4,1,1.1V119.5z"/>
	<path d="M35.3,119.6c-0.6,0-1.1-0.3-1.1-1h0.3c0,0.5,0.4,0.7,0.8,0.7c0.4,0,0.7-0.2,0.7-0.5c0-0.3-0.2-0.4-0.6-0.5l-0.4-0.1
		c-0.4-0.1-0.8-0.3-0.8-0.8c0-0.5,0.3-0.8,1-0.8c0.6,0,1,0.3,1,0.9H36c0-0.4-0.3-0.6-0.7-0.6c-0.4,0-0.7,0.2-0.7,0.5
		c0,0.3,0.3,0.4,0.6,0.5l0.5,0.1c0.4,0.1,0.8,0.3,0.8,0.8C36.4,119.3,35.9,119.6,35.3,119.6z"/>
	<path d="M39.1,119.5h-0.3V119c-0.1,0.3-0.4,0.6-0.9,0.6c-0.7,0-1-0.4-1-1.1v-1.8h0.3v1.8c0,0.5,0.2,0.8,0.7,0.8
		c0.5,0,0.8-0.5,0.8-1.1v-1.6h0.3V119.5z"/>
	<path d="M40.1,119.5h-0.3v-3.9h0.3V119.5z"/>
	<path d="M41.9,119.5c-0.1,0-0.2,0-0.3,0c-0.5,0-0.6-0.1-0.6-0.6v-2h-0.5v-0.3H41v-0.9h0.3v0.9h0.6v0.3h-0.6v2
		c0,0.2,0.1,0.3,0.3,0.3c0.1,0,0.2,0,0.3,0V119.5z"/>
	<path d="M42.8,116.1h-0.3v-0.6h0.3V116.1z M42.8,119.5h-0.3v-2.8h0.3V119.5z"/>
	<path d="M45.7,119.5h-0.3v-1.8c0-0.5-0.2-0.9-0.7-0.9c-0.5,0-0.9,0.4-0.9,1v1.7h-0.3v-2.8h0.3v0.5c0.1-0.3,0.5-0.6,0.9-0.6
		c0.7,0,1,0.4,1,1.1V119.5z"/>
	<path d="M48.6,119.1c0,0.8-0.4,1.3-1.2,1.3c-0.6,0-1.1-0.3-1.1-0.9h0.3c0.1,0.4,0.4,0.6,0.8,0.6c0.6,0,0.9-0.3,0.9-1v-0.2
		c-0.1,0.3-0.5,0.5-0.9,0.5c-0.8,0-1.2-0.5-1.2-1.4c0-0.8,0.5-1.4,1.2-1.4c0.4,0,0.8,0.2,0.9,0.5v-0.4h0.3V119.1z M47.4,116.9
		c-0.6,0-0.9,0.5-0.9,1.1c0,0.7,0.3,1.1,0.9,1.1c0.6,0,0.9-0.5,0.9-1.1C48.3,117.4,48,116.9,47.4,116.9z"/>
	<path d="M51.5,117.8h-0.6v-0.6h0.6V117.8z"/>
	<path d="M56.8,119.5h-0.4l-0.4-1.2h-1.7l-0.4,1.2h-0.4l1.5-3.9h0.4L56.8,119.5z M55.8,117.9l-0.7-2l-0.7,2H55.8z"/>
	<path d="M59.3,118.5c-0.1,0.7-0.5,1-1.2,1c-0.8,0-1.3-0.6-1.3-1.5c0-0.9,0.5-1.5,1.3-1.5c0.6,0,1.1,0.4,1.1,1H59
		c-0.1-0.4-0.4-0.7-0.8-0.7c-0.6,0-0.9,0.6-0.9,1.2c0,0.7,0.4,1.2,0.9,1.2c0.4,0,0.8-0.3,0.8-0.8H59.3z"/>
	<path d="M62.1,118.5c-0.1,0.7-0.5,1-1.2,1c-0.8,0-1.3-0.6-1.3-1.5c0-0.9,0.5-1.5,1.3-1.5c0.6,0,1.1,0.4,1.1,1h-0.3
		c-0.1-0.4-0.4-0.7-0.8-0.7c-0.6,0-0.9,0.6-0.9,1.2c0,0.7,0.4,1.2,0.9,1.2c0.4,0,0.8-0.3,0.8-0.8H62.1z"/>
	<path d="M62.7,118.2c0,0.6,0.3,1.1,0.9,1.1c0.5,0,0.8-0.3,0.9-0.7h0.3c-0.1,0.6-0.5,1-1.2,1c-0.7,0-1.2-0.6-1.2-1.5
		c0-0.8,0.4-1.5,1.2-1.5c0.9,0,1.2,0.7,1.2,1.6H62.7z M64.4,117.9c0-0.5-0.4-1-0.9-1c-0.5,0-0.8,0.5-0.9,1H64.4z"/>
	<path d="M65.7,119.5h-0.3v-3.9h0.3V119.5z"/>
	<path d="M66.5,118.2c0,0.6,0.3,1.1,0.9,1.1c0.5,0,0.8-0.3,0.9-0.7h0.3c-0.1,0.6-0.5,1-1.2,1c-0.7,0-1.2-0.6-1.2-1.5
		c0-0.8,0.4-1.5,1.2-1.5c0.9,0,1.2,0.7,1.2,1.6H66.5z M68.3,117.9c0-0.5-0.4-1-0.9-1c-0.5,0-0.8,0.5-0.9,1H68.3z"/>
	<path d="M70.4,117c-0.5,0-1,0.4-1,1v1.5h-0.3v-2.8h0.3v0.6c0.1-0.4,0.5-0.7,1-0.7V117z"/>
	<path d="M73.1,119.5c-0.1,0-0.1,0-0.2,0c-0.3,0-0.4-0.2-0.4-0.5c-0.1,0.3-0.5,0.6-1,0.6c-0.5,0-0.9-0.2-0.9-0.8
		c0-0.7,0.6-0.8,1.5-1c0.3,0,0.4-0.1,0.4-0.4c0-0.4-0.3-0.6-0.7-0.6c-0.4,0-0.7,0.2-0.7,0.7h-0.3c0-0.6,0.5-1,1.1-1
		c0.5,0,1,0.2,1,0.9v1.5c0,0.1,0.1,0.2,0.2,0.2c0,0,0.1,0,0.1,0V119.5z M72.5,117.9c0,0.1-0.2,0.1-0.3,0.2c-0.8,0.2-1.3,0.3-1.3,0.7
		c0,0.3,0.2,0.5,0.6,0.5c0.5,0,0.9-0.3,0.9-0.9V117.9z"/>
	<path d="M74.5,119.5c-0.1,0-0.2,0-0.3,0c-0.5,0-0.6-0.1-0.6-0.6v-2h-0.5v-0.3h0.5v-0.9H74v0.9h0.6v0.3H74v2c0,0.2,0.1,0.3,0.3,0.3
		c0.1,0,0.2,0,0.3,0V119.5z"/>
	<path d="M75.4,116.1H75v-0.6h0.3V116.1z M75.4,119.5H75v-2.8h0.3V119.5z"/>
	<path d="M78.3,119.5H78v-1.8c0-0.5-0.2-0.9-0.7-0.9c-0.5,0-0.9,0.4-0.9,1v1.7h-0.3v-2.8h0.3v0.5c0.1-0.3,0.5-0.6,0.9-0.6
		c0.7,0,1,0.4,1,1.1V119.5z"/>
	<path d="M81.2,119.1c0,0.8-0.4,1.3-1.2,1.3c-0.6,0-1.1-0.3-1.1-0.9h0.3c0.1,0.4,0.4,0.6,0.8,0.6c0.6,0,0.9-0.3,0.9-1v-0.2
		c-0.1,0.3-0.5,0.5-0.9,0.5c-0.8,0-1.2-0.5-1.2-1.4c0-0.8,0.5-1.4,1.2-1.4c0.4,0,0.8,0.2,0.9,0.5v-0.4h0.3V119.1z M80,116.9
		c-0.6,0-0.9,0.5-0.9,1.1c0,0.7,0.3,1.1,0.9,1.1c0.6,0,0.9-0.5,0.9-1.1C80.9,117.4,80.6,116.9,80,116.9z"/>
	<path d="M84.1,117.8h-0.6v-0.6h0.6V117.8z"/>
	<path d="M86.8,119.5h-0.4v-3.9h0.4V119.5z"/>
	<path d="M91.4,119.5H91v-1.9c0-0.4-0.2-0.7-0.7-0.7c-0.5,0-0.7,0.4-0.7,1v1.6h-0.3v-1.9c0-0.4-0.2-0.7-0.6-0.7
		c-0.6,0-0.8,0.4-0.8,1v1.6h-0.3v-2.8h0.3v0.5c0.1-0.3,0.4-0.6,0.9-0.6c0.4,0,0.7,0.2,0.8,0.6c0.1-0.3,0.4-0.6,0.9-0.6
		c0.6,0,0.9,0.3,0.9,1V119.5z"/>
	<path d="M93.3,119.6c-0.5,0-0.8-0.3-1-0.6v1.4H92v-3.7h0.3v0.5c0.1-0.4,0.5-0.6,1-0.6c0.7,0,1.2,0.6,1.2,1.5S94,119.6,93.3,119.6z
		 M93.3,116.9c-0.6,0-1,0.5-1,1.2c0,0.6,0.3,1.2,1,1.2c0.5,0,0.9-0.5,0.9-1.2S93.8,116.9,93.3,116.9z"/>
	<path d="M97.4,119.5c-0.1,0-0.1,0-0.2,0c-0.3,0-0.4-0.2-0.4-0.5c-0.1,0.3-0.5,0.6-1,0.6c-0.5,0-0.9-0.2-0.9-0.8
		c0-0.7,0.6-0.8,1.5-1c0.3,0,0.4-0.1,0.4-0.4c0-0.4-0.3-0.6-0.7-0.6c-0.4,0-0.7,0.2-0.7,0.7h-0.3c0-0.6,0.5-1,1.1-1
		c0.5,0,1,0.2,1,0.9v1.5c0,0.1,0.1,0.2,0.2,0.2c0,0,0.1,0,0.1,0V119.5z M96.7,117.9c0,0.1-0.2,0.1-0.3,0.2c-0.8,0.2-1.3,0.3-1.3,0.7
		c0,0.3,0.2,0.5,0.6,0.5c0.5,0,0.9-0.3,0.9-0.9V117.9z"/>
	<path d="M100,118.5c-0.1,0.7-0.5,1-1.2,1c-0.8,0-1.3-0.6-1.3-1.5c0-0.9,0.5-1.5,1.3-1.5c0.6,0,1.1,0.4,1.1,1h-0.3
		c-0.1-0.4-0.4-0.7-0.8-0.7c-0.6,0-0.9,0.6-0.9,1.2c0,0.7,0.4,1.2,0.9,1.2c0.4,0,0.8-0.3,0.8-0.8H100z"/>
	<path d="M101.5,119.5c-0.1,0-0.2,0-0.3,0c-0.5,0-0.6-0.1-0.6-0.6v-2h-0.5v-0.3h0.5v-0.9h0.3v0.9h0.6v0.3h-0.6v2
		c0,0.2,0.1,0.3,0.3,0.3c0.1,0,0.2,0,0.3,0V119.5z"/>
	<path d="M103.9,119.5h-0.4v-3.9h0.4V119.5z"/>
	<path d="M106.9,119.5h-0.3v-1.8c0-0.5-0.2-0.9-0.7-0.9c-0.5,0-0.9,0.4-0.9,1v1.7h-0.3v-2.8h0.3v0.5c0.1-0.3,0.5-0.6,0.9-0.6
		c0.7,0,1,0.4,1,1.1V119.5z"/>
	<path d="M109.6,116.6l-1,2.8h-0.4l-1-2.8h0.4l0.8,2.5l0.8-2.5H109.6z"/>
	<path d="M110,118.2c0,0.6,0.3,1.1,0.9,1.1c0.5,0,0.8-0.3,0.9-0.7h0.3c-0.1,0.6-0.5,1-1.2,1c-0.7,0-1.2-0.6-1.2-1.5
		c0-0.8,0.4-1.5,1.2-1.5c0.9,0,1.2,0.7,1.2,1.6H110z M111.8,117.9c0-0.5-0.4-1-0.9-1c-0.5,0-0.8,0.5-0.9,1H111.8z"/>
	<path d="M113.6,119.6c-0.6,0-1.1-0.3-1.1-1h0.3c0,0.5,0.4,0.7,0.8,0.7c0.4,0,0.7-0.2,0.7-0.5c0-0.3-0.2-0.4-0.6-0.5l-0.4-0.1
		c-0.4-0.1-0.8-0.3-0.8-0.8c0-0.5,0.3-0.8,1-0.8c0.6,0,1,0.3,1,0.9h-0.3c0-0.4-0.3-0.6-0.7-0.6c-0.4,0-0.7,0.2-0.7,0.5
		c0,0.3,0.3,0.4,0.6,0.5l0.5,0.1c0.4,0.1,0.8,0.3,0.8,0.8C114.7,119.3,114.2,119.6,113.6,119.6z"/>
	<path d="M116.2,119.5c-0.1,0-0.2,0-0.3,0c-0.5,0-0.6-0.1-0.6-0.6v-2h-0.5v-0.3h0.5v-0.9h0.3v0.9h0.6v0.3h-0.6v2
		c0,0.2,0.1,0.3,0.3,0.3c0.1,0,0.2,0,0.3,0V119.5z"/>
	<path d="M117.1,116.1h-0.3v-0.6h0.3V116.1z M117.1,119.5h-0.3v-2.8h0.3V119.5z"/>
	<path d="M120,119.5h-0.3v-1.8c0-0.5-0.2-0.9-0.7-0.9c-0.5,0-0.9,0.4-0.9,1v1.7h-0.3v-2.8h0.3v0.5c0.1-0.3,0.5-0.6,0.9-0.6
		c0.7,0,1,0.4,1,1.1V119.5z"/>
	<path d="M122.9,119.1c0,0.8-0.4,1.3-1.2,1.3c-0.6,0-1.1-0.3-1.1-0.9h0.3c0.1,0.4,0.4,0.6,0.8,0.6c0.6,0,0.9-0.3,0.9-1v-0.2
		c-0.1,0.3-0.5,0.5-0.9,0.5c-0.8,0-1.2-0.5-1.2-1.4c0-0.8,0.5-1.4,1.2-1.4c0.4,0,0.8,0.2,0.9,0.5v-0.4h0.3V119.1z M121.7,116.9
		c-0.6,0-0.9,0.5-0.9,1.1c0,0.7,0.3,1.1,0.9,1.1c0.6,0,0.9-0.5,0.9-1.1C122.6,117.4,122.3,116.9,121.7,116.9z"/>
</g>
<rect x="0" y="0" class="st2" width="255.1" height="141.7"/>
</svg>
